<?xml version="1.0" encoding="utf-8"?>
<!-- Generator: Adobe Illustrator 25.0.0, SVG Export Plug-In . SVG Version: 6.00 Build 0)  -->
<svg version="1.1" id="Capa_1" xmlns="http://www.w3.org/2000/svg" xmlns:xlink="http://www.w3.org/1999/xlink" x="0px" y="0px"
	 viewBox="0 0 425.2 165.3" style="enable-background:new 0 0 425.2 165.3;" xml:space="preserve">
<style type="text/css">
	.st0{fill-rule:evenodd;clip-rule:evenodd;fill:#24135F;}
	.st1{fill:#24135F;}
</style>
<path class="st0" d="M48.8,52.4c-1.3,0.3-2.7-0.7-3.2-2.1c-0.5-1.3-0.6-1.7-1-3.2c-0.4-1.2-0.4-2.9-0.8-4.2
	c-0.3-1.3,0.6-1.9,0.6-1.9s0.5-0.6,1.4-1.5c0.2-0.2,2.7-3,3.3-2.6c1,0.7,0.2,1.1-0.3,1.2c-0.4,0.1-1.9,0.9-0.1,0.7
	c1.1-0.2,0.5,0.7,0.1,1.2s-0.9,1.5-1.5,2.5c-0.5,0.8-0.7,0.7-0.8,1.3s-0.4,2.2,0,4.1c0.4,1.7,0.6,2.4,1.3,2.7s2.9,0.1,3.6,0
	c0.7-0.2,0.4,0.9,0.8,1.5C52.2,52.2,48.8,52.4,48.8,52.4"/>
<path class="st0" d="M48.1,46.7c-0.1-0.1,0.7-0.4,1-0.2c0.2,0.6,0.5,0.7,1.2,0.8c0.6,0,2.7-0.1,2.9-0.1c0.1-0.1-0.4,1.2-0.9,1.2
	l-3-0.1C48.1,47.9,48.2,46.8,48.1,46.7"/>
<path class="st0" d="M51.6,38.1c0.3-0.5,0.8-0.8,1-1.1c0.9-1.1,0.3-1.6-0.8-1.9c-0.6,0.2-0.8,0.6-1.1,0.7c-0.1,0-0.4,0.4-0.3,0.4
	c0,0.9,0.2,1.4,0.1,1.9c-0.1,0.4-0.2,0.9-0.4,1.3c-0.5,1-0.3,0.3-0.8,0.9c0,0.1-0.7,1.4-1.4,2.6c-0.6,0.9-0.6,2.3,0.5,2.8
	c0.8,0,2.3-0.6,2.8-0.7c0.6-0.2,2.5-1.2,3.5-2.2c0.2-0.3,0.2-0.6,0.1-0.6c-0.4-0.1-2.1,0.9-2.1,0.9c-1.4,0.6-2.9,1.2-3.3,0.7l0,0
	c0.1-1.4,1.8-3,2.5-3.9c0.2-0.4-0.5-0.8-0.1-1.8C51.6,38.2,51.6,38.2,51.6,38.1"/>
<path class="st0" d="M52.1,38.7l0.9-0.9c0.1,0.2,1.8,2.4-0.7,4C52,41.7,53.4,40.1,52.1,38.7"/>
<path class="st0" d="M63,40.9c0-0.1,1.6,1.4-0.5,1.9L62.1,44c-0.1,0.2,1.5,0.3,2.1-1.3c0.7-1.6-0.2-2.9-0.9-2.9L63,40.9z"/>
<path class="st0" d="M61.2,40.3c0.1-0.3-1.6,1-1.7,1.4c-0.3,0.2,0,0.7,0.8,0.5C60.9,41.7,61.2,40.4,61.2,40.3 M62.9,34.6
	c-0.1-0.3,1.1-0.8,1.3,0.6c0.4,3.5-1,3.1-1.5,4.4c-0.5,1.9-1.1,4.2-1.9,4.4c-0.5-0.1-0.9-0.5-1.4-0.5c-1.2-0.1-1.5-0.4-1.5-0.5
	c-0.3-1.7,0.4-1.8,3.5-4.2C62.3,38.5,62.9,34.9,62.9,34.6"/>
<path class="st0" d="M64.9,37.1c0.6,0.1,0.9-0.4,1-1.4c0.2-3.2,1-1.6,0.8-0.3c1,0.1,0.8-0.6,0.7-1.6c-0.4-1.6-1.6-2.7-2-0.5
	c-0.3,1.4-0.1,2.8-0.6,2.9L64.9,37.1z"/>
<path class="st0" d="M64.9,39.7c0.2,0.2,1.2-0.7,2.5-1.5c1.2-0.8,2-1.8,2.5-3c0.7-4.1-1.4-6.4-1.3-4.1c0.2,0.8,0.3,2,0.1,3.2
	c-0.3,1.9-2.3,2.7-2.9,3.3c-0.2,0.2-1.4,1-1.5,1.4L64.9,39.7z"/>
<path class="st0" d="M70.9,35c0,0.1,0.7-0.3,1.1-1c1-1.4,1.4-1.6,1.7-0.5c-0.1,1-1.2,1.7-1,1.9l0.7,1.1c0.6-0.8,0.9-1.4,1.1-2
	c0.1-0.6,0.4-1.5,0-3s-2-2-2-0.9c-0.4,2.5-1.5,3.1-1.7,3.5C70.8,34.3,70.8,34.6,70.9,35"/>
<path class="st0" d="M65.6,41.2c-0.1,0.1,2.8-1.8,3.5-2.2c1-0.6,1.5-1,1.8-1c0.4,0-0.1,0.7-0.9,1.6c-0.8,0.9-4.3,2.4-4.8,2.4l-0.1,1
	c1,0.1,4.4-1.7,5-2.3c0.5-0.4,1.3-0.9,2.1-2.2c0.8-1.4-0.1-2.7-0.8-2c-2,1.6-5.7,4-6.1,4.1C65,41,65.6,41.1,65.6,41.2"/>
<path class="st0" d="M65.2,45h-1.5c-0.3,0-0.8-0.6,1-1c1.8-0.4,3-1.2,3.5-1.5c1-0.7,5-2.8,5.1,0.2c-0.4,1.1-1.5,1.6-2.6,2.2
	c-0.9,0.4-2.7-0.2-1-0.8c0.6-0.4,1.3-0.6,1.7-1c0.5-0.7,0.6-1.3-1.3-0.4C67.2,43.7,65.2,45,65.2,45"/>
<path class="st0" d="M55.9,47.4c0,0,1.2,0.8,2.5-0.1c1.2-1,0.8-1.6,2.5-1.1c1.8,0.5,2,0.6,2,0.6l-0.3,0.6c0,0-2.4-0.1-3.2,0.3
	c-0.6,0.3-3,1.6-2.9,3.3s0.2,1.5-0.1,1.9S54,51.6,54,49.6C54.5,48.8,55.2,47.7,55.9,47.4 M57.9,45.5c0.4,0.7-0.9,1.1-1.9,0.4
	c-0.4-0.2-2.3,2.4-2.5,2.6c-0.3,0.2-1.8,2.1,0.9,5c1.5,1.6,3.5,1.8,4.6,1.7c0.5,0,0.5-0.8,0.3-0.9c-0.2-0.1-2.5-2.1-1.5-3.9
	c1-1.8,1.9-1.8,3.9-1.8c1.7,0,0.8,0.2,1.5,0c1.2-0.6,2.3-1.6,3.3-1.7c1.3,0,2.6,0.6,1.5,1.2c-0.6,0.3-1.2,0.7-2.1,1.1
	c-0.6,0.3-1.1,0.4-1.3,0.6l0.4,0.8c0.1,0.2,1.1-0.4,1.8-0.6c0.7-0.2,3.2-1.6,3-1.5c0.1-0.2,0.8-0.4,1-0.7c0.3-0.4,0.2-1.2-0.8-1.6
	c-1.7-0.7-1.1-1.6-4-0.9c-2.6,0.6-4.1,0-4.5-0.2c-0.1,0-0.1-0.1-0.1-0.1c-0.1-0.1-3.2-1.3-3.6-0.9C57.6,44.4,55.7,45.2,57.9,45.5"/>
<path class="st0" d="M64.2,59.5c0.2,0.1,4.5-5.4-1.7-10.2c-1-0.3-1.9,0.1-1.8,0c1.6,1.3,2.6,2.2,3.3,3.2
	C65.2,54.3,64.7,56.5,64.2,59.5"/>
<path class="st0" d="M81.1,28.1c0.2,0.6,1.9-0.2,1.6,0.8c-0.1,0.3-1.8,0.1-2,0.3c-0.2,0.2-0.3,0.5,0.1,0.7s2,0,2.3-0.1
	s0.6-0.3,0.6-0.9s-0.4-1.1-0.8-1.2C82.3,27.5,81.1,27.5,81.1,28.1"/>
<path class="st0" d="M83,25.4c-1.1-0.2-3,0.3-3.3,0.5c-1.1,0.5-1.8,3.5-1.2,5.6c0.4,0.7,2,1.2,2.7,1.4c2.3,0.7,3.6,1.1,4.7,1.7
	c0.9,0.5,1.7,1.1,2.4,1.9c0.6,0.7,1.3,1.9,1.4,3.8c0,1.3,1.1,3,1.6,2.9c-0.2-0.5-0.2-3.7-0.5-4.7c-0.9-3.1-2.9-4.3-3.4-4.6
	c-1.7-1.1-3.4-1.7-4.8-2.1S80,31,79.8,30.3c-0.2-2.4,0.6-3.2,0.8-3.3c0.7-0.4,1.8-0.2,2.4-0.5C83.2,26.5,83.7,26,83,25.4"/>
<path class="st0" d="M91.1,36.4c0.1,0,0.2,0.4,0.3,0.4c0.2,0.1,0.3,0,0.5,0c0.2-0.3,0.1-0.5,0.1-0.6C91.5,35.6,90.6,35.8,91.1,36.4"
	/>
<path class="st0" d="M93.2,41.5c-0.5-0.1-0.9-0.2-0.9-0.1c0,0.1-0.1,0.4-0.1,1c0.1,0.1,0.2,0.3,0.3,0.3c0.5,0,0.9,0,1-0.1
	C94.1,41.8,93.5,41.7,93.2,41.5"/>
<path class="st0" d="M94.2,30.1c0.3,0.1,1.1,0.1,1.9,0.2c0.1,0,0.2-0.3,0.1-0.4c-0.3-0.2-0.5-0.5-1.2-0.6c-0.9,0-1.7-0.2-1.9-0.2
	c-0.1,0,0,0.1,0,0.3C93.1,29.5,93.3,29.5,94.2,30.1"/>
<path class="st0" d="M82.7,30.9c0.5,0.3,0.8,0.4,1,0.5c0.3,0.1,0.7,0,1.4,0.1c0.5,0.1,2,0.5,2.4,1c0.1,0.1-0.3,0.4,0,0.6
	c0.4,0.2,0.7,0.2,1.1,0.2s1,0.2,1.3-0.1c0.5-0.5-0.5-0.9-1-1.2c-1.2-0.4-1.6-0.8-2.1-1s-1.4-0.4-1.9-0.4
	C84.6,30.8,82.4,30.6,82.7,30.9"/>
<path class="st0" d="M84.6,35.6c0-0.2-1.6,0.4-2.3,0.2c-0.7-0.2-3.6-1.3-4.4-1.5c-0.9-0.2-1.1-0.4-1.9-0.5s-0.4,0.7-0.3,0.8
	s2.1,0.7,2.9,0.9c0.7,0.2,1.8,0.6,2.5,1c1,0.4,1.5,0.8,1.5,0.8s0.3,0.7-0.5,0.6c-0.7,0-0.8-0.2-3.7-1.5c-2.9-1.2-3.2-1.1-3.1-1.2
	c0,0-0.9,0.5,0,0.9c1.1,0.4,3.6,1.4,4.3,1.8c0.7,0.4,2.4,1.4,2.8,1.5C83.4,39.7,84.6,36.6,84.6,35.6"/>
<path class="st0" d="M81.8,41.2c0-1.2-3.9-3.3-5.1-3.8c-1-0.4-1.5-0.6-2-0.7c-0.5-0.1-0.5,0.4-0.4,0.5s1.9,0.7,2.6,1
	s1.4,0.8,1.9,1.3c0.8,0.7,1.1,1,1.2,1.3c0.2,0.3,0.3,1.5-1.2,1c-0.4-0.1-0.3-0.3-2.8-1.6c-2.9-1.4-3.4-1.1-3.3-0.9
	c0,0.1,0.2,0.5,0.4,0.5c0.8,0.2,3,1.2,3.3,1.5c0.4,0.1,2.6,1.8,2.9,2.1C80.4,44,81.8,42.2,81.8,41.2"/>
<path class="st0" d="M73.5,38.6c-0.2,0-0.5-0.6,0.1-0.7c0.6-0.1,4.9,2.1,5.1,2.3c0.2,0.1,0.9,1.1-0.4,0.6
	C78.2,40.7,75.1,38.9,73.5,38.6"/>
<path class="st0" d="M72.9,44.9c0-0.1,0-0.7,0.8-0.2c0.3,0.9,0.8,1.7,0.8,2.5c0,0.4-1.2,1.2-1.7,1.1c-0.5-0.1-0.6-0.2-0.9-0.9
	c-0.2-0.7-0.5-1.2-0.7-1.6c-0.1-0.2,0.6-0.7,0.9-0.4c0.2,0.3,0.4,1,0.8,1.4c0.1,0.1,0.5,0,0.5-0.2C73.5,46.1,73,45.2,72.9,44.9"/>
<path class="st0" d="M75.1,47.7c0.1-0.3,1.1-0.4,1,0.4c-0.4,1.7-0.5,3.9-1.7,5c-0.4,0.3-2.5,0.4-2.9-0.1c-0.5-0.5-0.3-0.9,0.3-1.9
	c0.5-0.7,0.8-1.4,1-1.9c0.3-0.5,1.3-0.6,0.7,0.4c-0.1,0.5-0.5,1.2-0.9,2c-0.3,0.5,0.5,0.7,0.9,0.3C74.2,51.2,74.9,48.2,75.1,47.7"/>
<path class="st0" d="M71.1,59.3l-0.2,1.2c0,0.3-1.6-0.4-2.3-1c-1.2-1.3,1.3-2.5,2.5-5.3c0.2-0.5,1.4-0.6,0.7,0.4
	c-0.2,0.5-1.4,2.4-1.8,3.2c-0.2,0.5-0.3,0.4-0.1,1C70.1,59.2,71.1,59.2,71.1,59.3"/>
<path class="st0" d="M80.2,44.5c0-0.2,1-0.7,1-0.4c0.3,2,0.7,5.4-0.2,7.7c-0.3,0.7-3.5,1.7-4.2,1.1c-0.7-0.6-0.5-0.9-0.2-2.3
	c0.3-1.4,0.2-2.7,0.4-3.4c0-0.1,0.7-0.8,0.9-0.3c-0.2,0.9-0.2,2.4-0.3,3.5c-0.2,1.1,1.5,0.9,2,0.1C80.4,49.8,80.1,45.4,80.2,44.5"/>
<path class="st0" d="M77.4,54.4c0.1-0.5,0.8-0.5,0.7,0c-0.4,1.3-1.6,5.8-2.9,7c-0.4,0.4-3,0-3.2-0.5c-0.2-0.6-0.2-1.2,0.2-1.8
	c0.4-0.7,2.1-4.6,2.6-5.3c0,0,0.9-0.8,0.9-0.4c-0.2,0.6-1.9,4.9-2.5,5.8c-0.6,0.9,1,1.3,1.6,0.9C75.6,59.7,77.3,55,77.4,54.4"/>
<path class="st0" d="M74.3,62.9c0.1-0.3-1.1-0.6-1.2-0.2c-0.1,0.2-2.7,4.2,0.3,10.6c0.4,0.7,1.8,3.3,3.1,3.5c1.2,0.2,2.6-0.6,3-1.8
	c0-0.1,0.2-1.3-0.2-2.5c-0.5-1.6-0.8-4.5-0.7-6c0.2-2.2,0.5-2.4,0.5-2.8c0-0.1-0.7-0.3-1.1,0c-0.4,0.6-0.9,1.9-0.9,3.9
	s0.6,4.3,0.7,6.1c0.4,1.5-2.1,1.3-2.4,0.5c-1-1.6-1.9-3.9-1.9-6.2C73.5,66.1,73.8,64.3,74.3,62.9"/>
<path class="st0" d="M81.4,63.4c0-0.1-0.7,0-1.1,0.2c0,0.1-1.6,4.7,0.6,10c0.3,0.6,0.8,1.2,1.8,1.3c1,0.2,3.3-0.7,3.6-1.8
	c0-0.1,0.1-1.1,0-2.2c-0.1-1.2-0.5-3.3-0.5-4.6c-0.1-2.2,0.1-3.5,0.1-3.9c0-0.1-1-0.6-1.3-0.4c-0.3,0.4-0.2,2.3-0.2,4.7
	c0,1.6,0.1,2.7,0.1,4.2c0,1.9-1.9,2.1-2.4,1.2c-0.7-1.3-0.7-2.2-0.9-4.2C81.1,66.5,81.4,64.6,81.4,63.4"/>
<path class="st0" d="M87.8,62.1c0-0.1-0.8,0-1.1,0.2c0,0.3-0.4,3.7,0.9,8.3c0.3,1.2,1.9,1.5,2.8,0.7c2-2,2.5-2.6,1.9-5.4
	c-0.4-1.8-1.2-3.7-1.8-5.7c0,0-0.6,0-0.8,0.4c0.1,0.6,0.4,1.9,0.8,3.8c0.3,1.5,0.6,3.9-0.2,4.7C87.7,71.7,87.9,64,87.8,62.1"/>
<path class="st0" d="M83.6,40c0-0.1,0.6-0.4,0.6-0.3c1.3,1.8,3.6,6.6,3.1,9.2c-0.1,0.8-3.4,2.6-4.2,2.2c-0.8-0.4-0.6-1.4-0.5-2.7
	c0-1.3-0.6-4.8-0.7-5.4c-0.2-0.6,0.7-0.6,0.7-0.3c0.3,1.5,1,4.6,1.2,5.8c0.1,1.2,1.7,0.1,2.3-0.9C86.5,46.9,84,41.1,83.6,40"/>
<path class="st0" d="M74.5,43c-0.1-0.1-0.6,0.3-0.4,0.8c0.3,0.6,0.5,1.3,0.7,1.7c0.3,0.5,0.6,1.2,1.8,0.9c1.2-0.4,1.9-1.6,1.9-1.9
	c0-0.1-0.1-0.7-0.5-1.2c-0.9-0.9-2.3-1.7-3.7-2.4c-1.1-0.4-0.7,0-0.5,0.3c0.1,0.1,0.1,0.3,0.2,0.4c0.5,0.3,1.9,1.1,2.2,1.4
	c0.3,0.3,0.9,1,0.8,1.3c0,0.1-0.2,0.6-0.9,0.5C75.4,44.6,74.7,43.1,74.5,43"/>
<path class="st0" d="M78.8,45.9c0,0,0.5-0.9,0.6-0.4s0,3.7,0.1,3.5c0,0.1-0.3,0.9-0.5,0.9s-0.3-0.4-0.3-0.8
	C78.8,48.1,78.7,46,78.8,45.9"/>
<path class="st0" d="M82.6,41.1c0,0,0-0.9,0.5-0.2c0.2,0.4,0.7,1.6,1.1,2.8c0.4,1.1,0.6,2,0.7,2.5c0,0.3,0.2,1.3,0.1,1.4
	c-0.1,0.1-0.4,0-0.5-0.5s-0.2-1.2-0.4-1.9C83.6,43.9,82.9,42.3,82.6,41.1"/>
<path class="st0" d="M84.7,39.3c-0.1-0.2-0.2-0.6,0.3-0.2c0.5,0.4,1.9,2.3,2.3,2.8c0.2,0.3,1.5,2.6,1.2,3.8c-0.4,0.6-0.6,0-0.6-0.3
	c0-0.6-0.9-2.5-1.1-3C86.5,41.9,85.2,39.8,84.7,39.3"/>
<path class="st0" d="M89.9,35c-0.1,0.1-0.6-0.6-0.5-0.8s1-0.2,2.1-0.2c0.6,0.1,1,0.1,1.4,0.6c0.6,0.7,1.6,2.6,1.2,3.6
	c-0.4,0.2-0.8,0.2-1.3,0.2c-1.1,0.1-0.8-0.1-1-1c0.2-0.3,1.3,0.1,1.4-0.4c0-0.6-0.9-2-1.3-2C91.4,35,89.9,35,89.9,35"/>
<path class="st0" d="M79.8,127.1c0.9-0.3,1.2-0.1,1.9,0c1.2,1.3,2.1,3.5,2.7,5.5c0.8,2.6,1.7,5.2,3.6,7.3c-0.5,0.2-1,0.2-1.4,0
	c0-0.1-1.7-0.5-3.4-6.4C82.3,131.1,81.3,128.4,79.8,127.1"/>
<path class="st0" d="M83.5,127c0.9-0.1,1,0,1.8,0.1c0,0,1.3,0.8,3,6.1c1.4,4.3,3.2,6.6,3.3,6.6c0,0-0.7,0.2-1.3,0
	c-0.1,0-1.2,0.1-3.2-6.1C86.2,131.4,85,128.3,83.5,127"/>
<path class="st0" d="M90.8,130.6c1,2.1,2.9,8,4.5,9.2c0,0-0.9,0.1-1.5,0c-1.3-0.3-3.1-6.6-4.6-9.3C89.9,130.4,90.8,130.6,90.8,130.6
	"/>
<path class="st0" d="M76.6,126.2c0.3,0.8,1.2,0.9,1.1-0.3c-0.6-4.9-7.7-1.9-4.6,2.3c-0.2,0.9-1.5,2.9,0.3,7.1
	c-2.1,2.3-0.7,4.6,1.7,5c0.6-0.1,2.8-0.1,3-2.9c-0.2-1-0.9-1.1-1.4-0.4c-0.1,0.3,0.1,0.9-0.3,1.2c-0.7,0.7-1.9,0.4-1.9-1
	c0.1-1.2,1.3-1.4,1.2-1.7c-1.9-2.5-0.7-7.3-0.2-7.6c-0.4-0.4-0.9-0.8-1.1-1.2c-0.5-1.1,0.4-1.6,1.2-1.5
	C76.4,125.3,76.4,126.1,76.6,126.2"/>
<path class="st0" d="M98.8,127.1c-0.3,0.7-1.3,0.8-1.3-0.4c0.8-4.6,8-2,4.5,2.4c0.2,0.8,1.3,1.4,0,6.2c2.1,2.2,0.8,4.6-1.5,5
	c-0.6-0.1-2.6-0.1-2.8-2.8c0-1,1-1,1.2-0.1c0.3,1.3,2.1,1.1,2.2-0.1c-0.1-1.1-1.3-1.5-1.2-1.8c1.7-2.6,0.6-6.7,0-6.8
	c0.4-0.4,1.1-1,1.2-1.3c0.5-1-0.5-1.7-1.2-1.5C99.1,126.4,99.2,126.8,98.8,127.1"/>
<path class="st0" d="M78.3,124.3c0.3,0.6,0.5,1,0.5,1.7h7.5c0.1-0.5,0.2-1.1,0-1.7H78.3z"/>
<path class="st0" d="M76.3,141.1c0.3-0.3,1.2-0.5,1.7-1c0.1-0.1,0,0.7,2.4,0.7h14.9c-0.1,0.1,2.2-0.2,2.2-0.8c0-0.1,0.7,0.9,1.7,1.1
	c-0.8,0.9-2.1,1.4-3.5,1.5H79.3C77.8,142.3,77.4,142.2,76.3,141.1"/>
<path class="st0" d="M91.4,123.7c0,0.7,0.3,1.5,1.5,0.6c0.4-1.3,0.5-2.5,1.1-2.9C92.9,121.3,91.4,123,91.4,123.7"/>
<path class="st0" d="M97.1,119.3c-0.5,0.1-1.8,0-1-1.3c0.9-0.8,2.1-1.2,2.9-1.8C99.1,117.3,97.5,119.2,97.1,119.3"/>
<path class="st0" d="M101.2,118.7c-0.5,0.2-1.4-1.2-0.1-1.6c1-0.3,2,0.4,3.5-0.2C104.3,118.2,101.7,119.1,101.2,118.7"/>
<path class="st0" d="M117.4,118.9c1.2,0,1.9,0.1,2.8,0.3C116.7,121.8,115.7,119.1,117.4,118.9"/>
<path class="st0" d="M121.6,118.9c0.4,0,1.4,0.2,2.2,0.3C120.8,121.2,120.1,119.1,121.6,118.9"/>
<path class="st0" d="M122.1,116.5c0.4-0.2,1.2-0.8,2.3-1.2C123.4,119.1,121,117.9,122.1,116.5"/>
<path class="st0" d="M120.2,116.9c0.4-1,0.7-2,1.1-2.7C117.5,115.7,118.8,118.4,120.2,116.9"/>
<path class="st0" d="M101.9,113.6c-0.6,0.8-0.5,1.5,0.8,1.4c1.1-0.5,1.3-1.2,2.8-1.8C104.6,112.8,102.8,112.8,101.9,113.6"/>
<path class="st0" d="M76.1,110.8c1,0.4,0.8,1.9-0.6,1.5c-1.3-0.4-1.4-0.8-2.8-0.7C73.1,110.8,74.7,110.3,76.1,110.8"/>
<path class="st0" d="M65.2,112c0.7,0.2,1.5-0.8,0.6-1.3c-0.8-0.4-1-0.2-2.6-0.5C63.3,111,64.1,111.9,65.2,112"/>
<path class="st0" d="M59,112.9c0.8,0.3,1.7-0.7,0.8-1.1c-0.8-0.4-1-0.1-2.6-0.7C57.3,111.8,58.1,112.6,59,112.9"/>
<path class="st0" d="M46.8,106.4c1.4,0.4,1.9-1.1,0.4-1.7c-0.9-0.3-1,0-2.1-0.6C45.1,105,45.7,106.2,46.8,106.4"/>
<path class="st0" d="M41.8,103.9c1,0.7,2.1-0.7,1-1.4c-0.7-0.5-1.6-0.5-2.4-1.2C40.4,101.9,41,103,41.8,103.9"/>
<path class="st0" d="M47.1,101.1c0.3,1.2-1.5,1.6-1.7,0.4c-0.1-0.7,0-1.2-0.4-2.3C45.8,99.5,46.8,100,47.1,101.1"/>
<path class="st0" d="M43.5,99.9c-0.4,1.2-1.6,0.8-1.7,0c-0.1-0.8,0-0.7,0-2.2C42.5,97.9,43.5,98.7,43.5,99.9"/>
<path class="st0" d="M56.5,107.9c0.9,0.4,0.5,1.6-0.5,1.3c-0.5-0.2-0.9-0.8-1.9-0.9C54.3,107.9,55.2,107.6,56.5,107.9"/>
<path class="st0" d="M86.6,113.7c0.8,0.4,1.4,1.2,0,1.6c-1.1,0-1.6-0.6-3.1-0.4C84,114.1,85.4,113.4,86.6,113.7"/>
<path class="st0" d="M80.5,110.3c0.4,1-0.4,1.7-1.4,0.9c-1.1-0.8-0.7-1-1.9-1.8C78,109.1,79.7,109.4,80.5,110.3"/>
<path class="st0" d="M77.8,116.6c0.8-0.1,1.2-1.3,0-1.7c-1.1,0.1-1.2,0.5-3,0.8C75.3,116.3,76.6,116.7,77.8,116.6"/>
<path class="st0" d="M81.4,114.6c0.9-0.2,1.3-0.8,0.2-1.5c-1.1-0.3-1.7,0.2-3.1-0.3C78.8,113.7,80.2,114.7,81.4,114.6"/>
<path class="st0" d="M98.1,113.7c-0.3,0.4,0.2,1.4,1.2,0.7c0.4-0.9,0.5-1.2,1.5-2.2C99.8,112,98.1,113.1,98.1,113.7"/>
<path class="st0" d="M92.1,113c-0.2-1-0.5-1.2-1.6,0.3c-1.1,1.4-0.4,4.1,1.6,4.5c1.4,0.3,1.3-0.2,0.6-0.6c-0.7-0.5-0.7-1.1,0.1-1.4
	c0.8-0.2,1.2-1.1,0.2-1.6C92.2,113.9,92.1,113.1,92.1,113"/>
<path class="st0" d="M87.3,112.6c-2.2-0.3-2.5-3.3-1.3-4.6c0.7-0.7,2.2-1.1,3.3-0.9c-0.1,1.1,0,2.1,0.3,2.9c0.1,0.9-0.4,1.2-1.2,0.9
	C87.1,110.4,87,111.6,87.3,112.6"/>
<path class="st0" d="M65.6,122.8l0.9-0.4c2.1,3.5,3.1,3.5,4.7,4.1l0.3,1C69.2,127.6,66.7,125.4,65.6,122.8"/>
<path class="st0" d="M64.1,117c1.5,0,2.7,1.2,2.7,2.6s-1.2,2.6-2.7,2.6s-2.7-1.2-2.7-2.6S62.6,117,64.1,117 M64.1,118.5
	c0.6,0,1.1,0.5,1.1,1.1s-0.5,1.1-1.1,1.1s-1.1-0.5-1.1-1.1S63.5,118.5,64.1,118.5"/>
<path class="st0" d="M52.4,126.7c1.5,0,2.7,1.2,2.7,2.6c0,1.4-1.2,2.6-2.7,2.6s-2.7-1.2-2.7-2.6C49.8,127.8,51,126.7,52.4,126.7
	 M52.4,128.2c0.6,0,1.1,0.5,1.1,1.1s-0.5,1.1-1.1,1.1s-1.1-0.5-1.1-1.1S51.8,128.2,52.4,128.2"/>
<path class="st0" d="M64.4,107c-0.2-0.5,0.4-1,0.4-1s2.7,2.4,2.9,2.8c0.2,0.4-0.2,1.4-0.3,1.4C67.2,109.9,64.9,107.4,64.4,107"/>
<path class="st0" d="M59.6,103.2c0,0.2,1.3-1.2,2.3,0.3c0.5,2.3-1.2,3.6-1.2,3.7c-1.2,0.4-1.9,0.3-1.8-2.2
	C58.9,104,59.7,103,59.6,103.2 M63,102.4c1.9,2.9-1.1,6.2-1.3,6.3c-1.3,0.5-3.1,1.5-3.8-2.9C57.5,103.3,58.6,100.2,63,102.4"/>
<path class="st0" d="M36.8,88.8c0-0.1-1.9,0-2.4,1.5c0.4,1.6,1.6,2.7,1.9,3c0.9,0.3,2.8,0.1,2.1-2.1C37.9,89.3,36.7,88.8,36.8,88.8
	 M32.8,90.1c-0.5,2,2.2,4.3,3.4,5c1,0.2,3.8-0.2,3-4.2C38.5,88,36.7,86,32.8,90.1"/>
<path class="st0" d="M63.8,100.6c0.1-0.6-0.7,2.2,1.3,0.9c0,0,0.4-0.4,1-1.6c0-0.5-1.4-1.3-1.6-1C63.8,99.2,63.6,101.2,63.8,100.6"
	/>
<path class="st0" d="M32.5,87.8c0.1,0.1,0.9,1.8-1.3,1.2c0,0-0.4-0.4-1.3-1.3c0.1-0.4,1.2-1.4,1.3-1.2
	C31.7,86.7,31.7,86.9,32.5,87.8"/>
<path class="st0" d="M60.3,99.9c0.2-0.8-0.3,2.1-1.6,0.3c0,0-0.2-0.5-0.3-1.6c0.2-0.4,1.8-0.6,1.9-0.3
	C60.8,98.7,60.2,100.2,60.3,99.9"/>
<path class="st0" d="M35.4,86.1c0.1,0.5,0.6,1.8,1.7,0.2c0-0.1,0.2-1,0.1-2.2c-0.2-0.2-1.9-0.1-1.9,0.2
	C35.3,85.5,35.3,85.3,35.4,86.1"/>
<path class="st0" d="M63.2,100.2c-0.1,0.2-1.3,1.9-1.9-0.1c0,0-0.3-0.7-0.1-2c0.3-0.3,2.4,0,2.5,0.4C63.8,98.6,63.3,100,63.2,100.2"
	/>
<path class="st0" d="M32.9,87.1c0.3,0.5,1.9,1.4,1.8-0.5c0,0,0.1-0.8-0.5-1.9c-0.2-0.2-2.1,0.6-2.3,0.9
	C31.8,85.7,32.6,86.6,32.9,87.1"/>
<path class="st0" d="M31.3,83.1c0.2,0,0.3,1.2,0.4,1.2c0.8-0.1,1.5-0.5,1.6-0.6c0-0.1-0.8-1.2-0.8-1.2c0.3-0.8,0.2-1.3-0.1-1.8
	c-0.3-0.5-1.1-1.2-2.2-0.5c-1.1,0.8-0.4,2-0.3,2.2C30.1,82.8,31.2,83.2,31.3,83.1"/>
<path class="st0" d="M42,91.4c0,0,0.9,1.3,0,2.2c-6.5,3.1-6.5,6-6.7,6.1c-1.6,0.4-1.8-1.1-1.9-0.6c-0.6,3.1,2,2.7,2.4,2.8
	c0.2,1.2,2.1,2.7,1.9,3.2c-0.4,1.2-1.4,0.3-1.6,0.5c0.5,1.6,2.6,1.3,3.1,0.9c0.4,0,0.9,0.9,2.9,1.6c0.3,1-0.3,1.3-1.2,1.6
	c2.6,1.2,3-1.2,3.2-1c0.9,0.3,3.3,0.6,4.2,0.8c0,0,0.4-1,0.4-1.6c-0.7-0.1-3.1-0.3-5.9-1.4c-2.7-1.1-3.7-3-4.9-4.7
	c-1.2-1.8-0.2-3.2,0.6-3.8c0.8-0.6,2.3-2.7,4.5-2.6s3,1.8,4,3s2.6,5.7,2.9,6.1c0.3,0.5,0.8-0.8,0.9-1c0-0.2-0.7-1.8-0.8-2.1
	c2.7-2.4,0.6-4.5,0.6-4.4c0.1,0.2-0.4,2.3-1.7,1.6c-0.2-0.1-0.4-0.5-0.6-0.7c-3-4.1-4.1-3.3-4-3.7c0-0.1,0-0.2,0-0.4
	C44.6,91.2,42.1,91.3,42,91.4"/>
<path class="st0" d="M129,110.5c1.8-1,4.8,0.7,2.8,3.5c-2.6,2.5-5.2,2.1-5.9,1.4C125.2,114.6,125.6,112,129,110.5 M129,111.6
	c0.8-0.3,2.4,0,2.1,1.3c-1.8,1.9-3.5,1.5-3.7,1.2C126.7,113.8,127.6,112,129,111.6"/>
<path class="st0" d="M131.5,106.7c-0.1-0.3,2,0.5,1.7,1c-0.2,0.5-1,1.2-0.9,1.2c0.1,0-1.5,0.9-1.3-0.5
	C131.3,107,131.6,106.8,131.5,106.7"/>
<path class="st0" d="M134,108.4c0.7,0.2,1.1,0.9,1.1,1.4s-1.9,1.1-1.8,0.9c0-0.1-1.2,0-0.5-1.1C133.5,108.7,134,108.4,134,108.4"/>
<path class="st0" d="M135.7,110.8c0-0.1,0.5,1.6,0.3,1.9c-0.2,0.4-1.3,0.2-1.4,0.2c-0.1,0-1.9-0.4-0.5-1.3
	C135.4,110.8,135.7,110.9,135.7,110.8"/>
<path class="st0" d="M136.5,106.7c-0.5,0.4-1,0.8-1.4,1l1,1.2c0.4-0.4,0.8-0.9,1.2-1.4c0,0,1.2,0.1,1.6-0.4c0.4-0.5,0.5-1.2,0-1.8
	c-0.5-0.6-0.9-0.7-1.9-0.2C136.2,105.6,136.5,106.7,136.5,106.7"/>
<path class="st0" d="M158.3,101.1c-1-0.1-1.6,0-2.2,0.1l0.2,1.8c0.8-0.1,1.6-0.4,2.3-0.6c0,0,0.9,0.7,1.8,0.5
	c0.9-0.2,1.3-1.3,1.1-2.1c-0.2-0.8-0.8-1.1-1.8-1.1C158.7,99.7,158.3,101,158.3,101.1"/>
<path class="st0" d="M146.8,125.1c-0.8-0.3-0.6-0.2-1.2-0.3l-0.8,1.2c0.9,0.1,1.3,0.4,1.9,0.5c0,0,0.6,1,1.6,1.1
	c0.9,0.1,1.6-0.8,1.7-1.6c0.1-0.9-0.6-1.5-1.6-1.7C147.3,124.1,146.8,125.1,146.8,125.1"/>
<path class="st0" d="M151.8,98.8c0.6,0.4,0.9,0.6,1.2,0.8l-0.1,1.7c-0.1,0.1-0.2,0.1-0.4,0c-0.5-0.5-1-0.9-1.4-1.2
	c0,0.3-1.4,0.6-2-0.1s-0.6-1.4-0.2-2.1c0.4-0.6,1-0.9,2-0.6C151.8,97.5,151.7,98.7,151.8,98.8"/>
<path class="st0" d="M140.3,121.5c0.4,0.8,1.2,2,1.5,2.6l1.5-1.1c-0.5-0.7-1.4-1.5-1.8-2.2c0,0,0.3-1.3-0.1-1.7
	c-0.4-0.5-1.3-1-2.2-0.5s-1.1,1.2-0.7,2.2C139.1,121.8,140.4,121.5,140.3,121.5"/>
<path class="st0" d="M113.3,132.3c1.5,0,2.6,1.2,2.6,2.6c0,1.4-1.2,2.6-2.6,2.6c-1.5,0-2.6-1.2-2.6-2.6S111.8,132.3,113.3,132.3
	 M113.3,133.8c0.6,0,1.2,0.5,1.2,1.1s-0.5,1.1-1.2,1.1c-0.6,0-1.2-0.5-1.2-1.1S112.7,133.8,113.3,133.8"/>
<path class="st0" d="M121.2,127.1c0.2-0.1,2.2-0.9-0.7-1.4c-2.4-0.8-8,0.9-4.5,4c2.6,1.4,4.6-0.3,5.3-1.2c0.6-0.4,0.5-0.7-0.5-0.7
	c-1,0.1-2.2-0.1-2.6-0.2c-0.1,0-1.3,0-0.3,1.2c-0.2,0.5-1.7-0.3-1.6-1c0.1-0.5,1-0.9,1.6-0.9C118.6,126.8,121.1,127.1,121.2,127.1"
	/>
<path class="st0" d="M122,134.9c1.1,0.1,1.5,0.4,1.6,1.5s-0.9,1.4-0.8,1.7c0.2,0.3,0.3,1.2,0.2,1.5c0,0.2-1.2,1.1-1.3,1
	c-0.1-0.3-0.1-1.9-0.2-2.2s-1-0.7-1.2-1.4C120.2,136.1,120.8,134.8,122,134.9"/>
<path class="st0" d="M128.3,146.6c-0.7,1-1.6,0.8-2.4,0.2s-0.4-1.4-0.7-1.5c-0.4-0.1-2-0.8-2-1c-0.2-0.1,0.7-1.2,1-1.3
	c0.3,0,1.5,1.2,1.5,1.3s1-0.5,1.9-0.2C128.5,144.3,129.1,145.6,128.3,146.6"/>
<path class="st0" d="M104.6,138.1c-0.2,0.1,2.1-1.1,5.1-1.6c0.3-0.1,0-1.3,0.1-1.3s-4.5,0.5-5.5,1.2
	C104.2,137.4,104.5,138.2,104.6,138.1"/>
<path class="st0" d="M104.6,128.2c0.3,0.1,4.4,0.3,9.3-1.1c0.2,0.7,0,1.1-0.1,1.2s-8.7,1.5-9.9,1.2
	C103.9,128.9,104.4,128.5,104.6,128.2"/>
<path class="st0" d="M109.5,134.4c0.3-0.1,0.7-0.4,0.6-1.2c-0.3-0.3-1.9-0.7-0.4-1.4c1.8-0.7,3.9-1.2,4.8-1.5
	c0.1-0.4-0.2-1.1-0.5-1.1c-0.3-0.1-5,1.5-5.1,1.7s-1.6,0.3-1.3,2C107.6,133.5,109.5,134.4,109.5,134.4"/>
<path class="st0" d="M66.2,136.2v1.1c0,0.1,3,0,4.9,1.1c0.3-0.3,0.3-1.7,0.2-2C70.8,136.6,65.9,135.8,66.2,136.2"/>
<path class="st0" d="M50.6,134.5c0.1-0.5,1.4-1.3,2.1,0.3c0.2,0.7,0.2,1.1,0.2,1.1c-0.1,0.2-2.4,0.7-2.3,0.4
	C50.4,135.9,50.6,134.6,50.6,134.5"/>
<path class="st0" d="M43.8,142.8c-0.6,0.1-1.4,1.9,0.5,2.1c0.6-0.1,0.4,0,1.1-0.1c-0.3-0.5-0.2-2.4-0.5-2.1
	C44.5,142.7,43.9,142.8,43.8,142.8"/>
<path class="st0" d="M31.9,116.1c0.3-0.5,2-0.8,2.3,0.6c0,0.6,0,1-0.1,1.1c-0.1,0-2.5-0.1-2.4-0.2C31.6,117.2,31.9,116.2,31.9,116.1
	"/>
<path class="st0" d="M22.5,95.3c0.7-1.1,2.7-1.2,2.1,1.1c-0.1,0.2-0.4,1.1-0.5,1.1c0,0.1-2.4-1.2-2.3-1.3
	C22.1,96.2,22.4,95.6,22.5,95.3"/>
<path class="st0" d="M12.3,97.9c-0.3-0.1-1.6,0.6-1,1.8c0.6,0.4,1.3,0.9,1.4,0.8c0.1-0.1,1-2,0.8-2C13.2,98.2,12.3,97.9,12.3,97.9"
	/>
<path class="st0" d="M23.7,123.2c-0.3,0.2-1,1.6,0.3,2.2c0.8,0.2,0.9,0.2,1.2,0.2c0.1,0.1,0.4-2.2,0.3-2.1
	C25.4,123,24,122.9,23.7,123.2"/>
<path class="st0" d="M54.1,137.6c0.3-0.9-0.1-1.4-1.2-1c-1.1,0.4-1.2,0.3-1.9,0.4c-0.7,0-1,0.4-0.6,1.4c0.3,0.5,0.9,0.6,1.3,0.7
	c0.2-0.1,0.3,1.1,0.4,1.2l1.8,1.4c0,0-0.7-2.2-0.8-2.9C53,138.5,53.5,138.5,54.1,137.6"/>
<path class="st0" d="M47.8,145.6c-0.9,0.9-1.7,0.5-1.6-0.9c0.1-1.4-0.2-1.5-0.4-2.1c-0.3-0.6-0.2-1.2,0.8-1.3c0.6,0,1.1,0.9,1.5,1.3
	c0.1-0.1,1.8-0.4,2-0.1l0.9,0.9c0,0-1.6,0.3-2.2,0.6C48.4,143.9,48.4,144.7,47.8,145.6"/>
<path class="st0" d="M34.4,120.1c0.6-0.9,0.4-1.7-0.8-1.5c-1.2,0.1-1.4-0.1-2.1-0.3c-0.7-0.2-1.2,0.3-0.9,1.2c0.3,0.9,0.8,0.8,1.1,1
	c0.1,0-0.5,1.3-0.3,1.4l1.5,1.3c0.2,0.1,0.4-2.2,0.4-2.7C33,120.4,33.6,120.7,34.4,120.1"/>
<path class="st0" d="M24,99.7c1.1-0.5,0.8-1.4-0.4-1.7c-1.2-0.3-1.4-0.7-2-1.1s-1.4,0-1.4,0.9s0.5,1.1,0.7,1.4
	c0.1,0-0.6,1.3-0.5,1.5l0.8,2.2c0.1,0.4,1.2-3.1,1.2-3.2C22.2,99.6,23.1,100.1,24,99.7"/>
<path class="st0" d="M13.8,102.4c-0.8-0.2-1.2-0.7-0.6-1.5c0.5-0.8,0.6-1.2,0.9-1.9c0.3-0.7,1.1-0.7,1.4,0.1c0.3,0.7,0.2,1,0.2,1.4
	c-0.1,0.1,1.4,0.6,1.5,0.8l0.3,1.7c0,0.2-2.1-0.9-2.5-1.2C14.9,101.5,14.8,102.2,13.8,102.4"/>
<path class="st0" d="M27,126.4c-0.7,0.2-1.4-0.1-1.1-1.1s0.2-1.5,0.3-2.1c0.1-0.6,0.7-0.7,1.3-0.4c0.6,0.4,0.6,1.1,0.6,1.5
	c0,0.1,1.5,0,1.6,0.1l1.7,1.6c0.1,0.1-2.9-0.4-3.4-0.5C27.8,125.3,27.9,125.8,27,126.4"/>
<path class="st0" d="M58.1,136.3c-0.1,0-1,1.2,0.6,1.1c1-0.1,0.7-0.7,3.3-1.3c1.1-0.3,1.6,0.4,1.9,1c0.3,1-1.2,1.6-1.5,1.3
	c-0.3-0.4-0.3-0.3,0.2-0.4c0.5-0.1,0.7-1.2-0.2-1s-4.1,1.5-4.1,1.5s1.1,1.1,3.2,1.1c2.1,0,3.7-1.2,3.8-2.3s-0.6-2.2-2.8-2.5
	C60.2,134.4,58.2,136.2,58.1,136.3"/>
<path class="st0" d="M44.2,116.5c-0.1,0.1-2,0.8,0.6,1.2c0.7,0.1,1.6,0.3,2.7,0.7c1,0.4,1.3,0.9,1.4,1.4c-1,1.9-2.3,0.1-1.6,0.3
	c0.6,0.2,1.1-0.7,0.2-0.9c-0.9-0.1-4.6-1.2-4.7-1.2c-0.2,0,0.2,1.7,2.1,2.8c2,1.1,4,1,4.7,0.3s1.3-2.4-0.7-3.8
	C46.9,116.1,44.3,116.5,44.2,116.5"/>
<path class="st0" d="M65.4,134.5c-0.3,0.6,0.4,0.9,0.7,0.7c1.2-0.3,1.6-1.9,1.5-2.2c-0.1-0.4,0.1-1-1.8-2.3
	c-1.9-1.3-9.1-2.5-9.7-2.3c-0.5,0.4-0.1,1.2-0.1,1.2c0,0.1,5.6,0.9,6.7,1.3C63.9,131.3,68.1,132.5,65.4,134.5"/>
<path class="st0" d="M55.5,126.3c-0.8,0.3-0.6,0.6-0.2,0.8c0.9,0.5,2.1-0.2,2-1s-0.3-0.9-1.1-1.6s-5-3.3-5.4-3.2
	c-0.5,0.3-0.5,0.8-0.5,0.8s2.4,1.6,2.9,1.8C53.7,124.3,56.1,125.6,55.5,126.3"/>
<path class="st0" d="M63.4,123.5c0.2-0.7,0.6-0.5,1.2-0.2c-0.1,0.3-0.3,1.5-1.1,1.7c-0.8,0.2-3.5-0.9-4.8-1.4s-7.4-3.3-7.7-3.5
	c-0.2-0.5,0.1-0.7,0.1-0.8c0.2,0.1,3.8,1.5,4.9,2.1c0.4,0.2,2.2,1.1,4.1,1.7C61.6,123.5,63,124.1,63.4,123.5"/>
<path class="st0" d="M112.1,112c-0.3,0.3-0.7,1.2,0.5,2.2c0.8,1.3-1.1,2.1-0.7,2.2c0.3,0.3,2.6,0.8,3.4-1.7c0.8-2.6-1.1-4.1-1.8-4.3
	L112.1,112z"/>
<path class="st0" d="M135.4,64.3c0.3-0.1,2.3,1.2,2.4,1.3c0.1,0.1,0.9,2.8,1.1,3.6c0.2,0.8,0.3,2.4,0.2,2.6s-1.9-1.9-2.3-2.9
	C136.5,68.5,135.1,64.4,135.4,64.3"/>
<path class="st0" d="M128,63.4c0.2-0.1,1.7,0.2,1.7,0.3c0,0,1.1,3.3,1.3,4.4c0.2,1.2,0.7,2.3,0.8,2.8c0.1,0.5-2-1.9-2.3-3
	C129.2,67.4,127.8,63.5,128,63.4"/>
<path class="st0" d="M122,65.1c0.1-0.2,1.6-0.3,1.7-0.3c0,0.1,1.1,3.6,1.6,4.7c0.4,1.5,0.6,1.6,0.6,1.6c0,0.1-2-1.3-2.2-2
	C123.4,68.5,121.8,65.3,122,65.1"/>
<path class="st0" d="M114.8,67l2,0.1c0,0,2.3,4.1,2.7,4.6C117.6,71.8,114.5,67,114.8,67"/>
<path class="st0" d="M108.7,70.3c0.5-0.3,1.2-0.3,1.8-0.4c0,0.2,1.4,2.1,1.6,2.2C111.6,72.2,109.8,71.8,108.7,70.3"/>
<path class="st0" d="M100.7,67.9c-0.2-0.3-0.7-1.9,0.4-0.7c1.1,1.2,1,1.6,1,1.5c0,0,0.4,0.8,0,1.3s-0.6,0.2-0.6,0
	C101.4,70,100.9,68.2,100.7,67.9"/>
<path class="st0" d="M104.6,62.9c-0.1-0.2-0.1-2,1.2-0.8c1.3,1.3,2.2,2.5,2.3,2.6c0,0,1.1,1.8-0.7,1.1
	C106.1,64.7,104.7,63,104.6,62.9"/>
<path class="st0" d="M108.8,57.9c0.1,0,0.5-1.3,0.3-1.6c-0.2-0.4,5.3,5,5.6,5.6c0.3,0.6,0.1,0.9-0.5,1.1
	C112.8,62.2,108.7,58,108.8,57.9"/>
<path class="st0" d="M112.2,51.3c0.1-0.8-0.1-0.9,0.2-1.2c0.3-0.3,3.6,2.8,4.7,4.1s3.9,4.4,4.1,4.8c0.1,0.4,0.5,1.6-0.6,0.8
	s-3.6-3.8-4.2-4.4C115.7,54.9,112.4,51.5,112.2,51.3"/>
<path class="st0" d="M117.3,37.1c0.5-0.6,1-0.4,1.6-0.5c0.7-0.1,9.2,8.5,10.4,10.1c1.4,1.4,8.1,11.6,8.1,12.7c0,0.9,0.1,2-1.5,0.2
	c-0.9-1.8-6.5-10-7.6-11.5C126.3,45.2,118.9,38.2,117.3,37.1"/>
<path class="st0" d="M105.2,42.5c-0.1,0-0.2-0.9,0.1-1c0.2-0.1,5.7,3,5.6,3.3c-0.1,0.2,0.5,1.2-0.7,0.6
	C108.4,44.7,105.3,42.4,105.2,42.5"/>
<path class="st0" d="M105.7,50.5c-0.1-0.6,0.2-1.4,0.4-1.2c0.1,0.1,2.1,1.6,2.1,1.6s0.4,1.2-0.5,0.8
	C106.8,51.2,106.5,50.8,105.7,50.5"/>
<path class="st0" d="M102.9,56.6c0-0.3,0.4-0.9,0.6-1s1.2,1,1.3,1.3c0.2,0.2,0.2,1.1-0.5,0.7C103.6,57,103.4,56.8,102.9,56.6"/>
<path class="st0" d="M98.8,61.2c0.1-0.2,0.5-0.7,0.7-0.8c0.3-0.1,0.8,1.2,1,1.5s-0.1,1.2-0.7,0.5C99.2,61.9,99.2,61.7,98.8,61.2"/>
<path class="st0" d="M92.3,59.3c-0.1-0.1,0-1.1,0.5-0.1s0.7,1.6,0.7,1.7c0,0.1,0.1,1.2-0.5,0.3C92.5,60.1,92.3,59.3,92.3,59.3"/>
<path class="st0" d="M88.6,61.6c0-0.2,0.3-1,0.6,0c0.3,0.9,0.8,4.5,0.7,5.4c-0.1,1-0.6,0.4-0.7,0.2C88.8,64.1,88.6,61.7,88.6,61.6"
	/>
<path class="st0" d="M83.4,63.7c0-0.3,0.3-0.8,0.2-1.1c-0.1-0.3-0.5-0.2-0.7,0.1s-0.6,0.2-0.6,4.6c0,1,0,1.8,0.1,2.3
	c0.2,1.9,1.1,1.5,1-0.1C83.4,66.3,83.4,63.8,83.4,63.7"/>
<path class="st0" d="M75.3,63.1c0.6-1.2,0.6-0.9,1.2-0.2c0.2,0.3,0.1,0.5,0.1,0.6C76.5,64,76,66.3,76,66.8s0.1,3.9,0.4,4.9
	c0.4,1-0.1,1.3-0.6,0.9c-0.6-0.4-1.2-4.4-1.2-4.5C74.7,68,74.7,64.3,75.3,63.1"/>
<path class="st0" d="M72.8,54.6c0.3-0.6,0.7-0.6,0.6,0.1c-0.4,0.9-1.5,2.7-1.6,3.1c-0.2,0.4-1.2,1.3-0.8,0
	C71.4,56.6,72.5,55.1,72.8,54.6"/>
<path class="st0" d="M76.1,54.3c0.1-0.4,0.6-0.7,0.6-0.2c-0.3,1.3-1.5,4.2-1.8,4.6c-0.2,0.3-1.1,1.1-0.6-0.3
	C74.9,57.1,76,54.8,76.1,54.3"/>
<path class="st0" d="M81.2,53c0.2-0.4,0.6-0.5,0.9-0.8c0,1.7-0.8,6.1-1,6.5c-0.5,1-1.2,0.7-1.1,0C80.2,57.9,81,53.4,81.2,53"/>
<path class="st0" d="M87.3,50.6c0.1-0.1,0.4-0.6,0.8-0.6s-0.4,6.9-0.4,7.1c0,0.2-0.4,1.2-0.7,0.4C86.9,56.8,87.2,50.7,87.3,50.6"/>
<path class="st0" d="M92.6,47.9c0-0.1,1.5,0.1,0.9,1s-0.7-0.4-0.6,0C92.9,48.9,92.7,48,92.6,47.9"/>
<path class="st0" d="M90.7,48.4c0,0,0.9-0.6,1.1-0.4c0.2,0.2,0.7,4.4,0.7,5.7c-0.1,1.4,0,2-0.1,2.9c-0.1,1.1-2.2,2.8-2.1,2.3
	l0.3-1.8c0,0,0.7-0.5,0.8-0.8C91.4,55.8,91,48.7,90.7,48.4"/>
<path class="st0" d="M92.7,45.5l-0.1,1.2c0,0.3,3.5,0.5,2,2.3c-1.6,1.8-1.3,1.6-1.3,1.7l0.2,1.3c0.1,0.4,2.1-1.8,2.4-2.5
	c0.3-0.6,0.8-1.9,0.4-2.7C96,46.1,93.6,45.4,92.7,45.5"/>
<path class="st0" d="M92.1,39.4l0.1,1c0,0,1.7,0.1,2,0.5s0.5,2.3,0.3,2.7s-2.5-0.1-2.5,0l0.2,1.1c0.7,0.1,1.8,0.3,2.3,0.4
	c0.4,0.1,1.4-0.2,1.3-1s-0.3-3.2-0.6-3.5c-0.3-0.4-0.5-1-1.3-1.1C93,39.2,92.1,39.4,92.1,39.4"/>
<path class="st0" d="M85,38.1c-0.1,0.1-0.2-1,0.4-0.9c0.5,0.1,3.3,2.6,4.3,5.8c0.8,2,1.8,1.8,2.1,2.2c0.3,0.6,0.3,0.4-0.1,1.3
	c-0.4,0.9-3,2.2-3.1,2.1l-0.1-1.5c0,0,1.6-0.8,1.1-2.1C88.8,41.3,85,38.3,85,38.1"/>
<path class="st0" d="M59.1,50.6c0.7-0.1,4.4,2.4,4.4,6.4c0,4.1-3.7,6.8-5,8c-1.3,1.2-9.7,5.9-6,13.2c-2.6-1.2-3.2-7.4,0.6-11.4
	c1.7-1.8,2.2-1.9,5.9-5.5c1.6-1.6,2.8-3.3,2.4-4.9c-0.4-1.7-1.9-3.3-3-4.5C58.4,51.7,58.5,50.7,59.1,50.6"/>
<path class="st0" d="M31.7,62.2c1-0.4,0.7,0,0.9-0.5s1.5-0.7,1.7-0.3s-0.5,1.5-0.8,1.5c-0.1,0.1-1,0.5-0.4,2
	c0.6,0.8-0.3,1.6-0.4,1.7c0.1-0.1-1.5-0.2-1.4-2.1C30.6,63.7,30.4,62.7,31.7,62.2"/>
<path class="st0" d="M35,63.3c0.2-0.3,0.1-1.3,0.6-1.3c0.3,0,1.1-0.3,1.3,0c0.1,0.2,0,0.6-0.3,1c-0.2,0.3-0.6,0.5-0.9,0.5
	c0.1,0.4-0.1,1.4-0.3,1.8c0.2,0.3,0.4,0.6,0.5,0.8c0.5,1.6-2.3,0.9-1.4-0.8C33.9,64.8,33.7,63.8,35,63.3"/>
<path class="st0" d="M37.3,63.6c0.4-0.2,0.4-1,0.7-1.1s1.3-0.1,1.6,0.2c0.1,0.1,0.1,0.7-0.2,1.2c-0.2,0.3-0.6,0.6-1,0.7
	c0,0.4-0.1,1.4-0.4,1.8c0.2,0.4,0.4,0.6,0.5,0.9c0.1,0.4-0.2,0.9-0.3,1c-0.3,0.3-1.1-0.3-1.5-0.6c-0.2-0.2,0-0.8,0.2-1.6
	C36.4,65.3,36.2,64.3,37.3,63.6"/>
<path class="st0" d="M60.2,55.5c0.3-0.4,1,0.9,0.3,2s-6.8,4.8-9.4,8.1c-2.6,3-3.9,10.1,0.8,13.7c2.4,2.3,7,1.1,10.3,1.3
	c3.2,0.2,4.2,2,2.7,4c-1.5,2-1.3,0.2-1.1,0.1c0.7-1.1,0.6-1.7-0.3-2.1c-1.1-0.2-2.8-0.2-3.9-0.1c-4.6,0.6-7.6-0.1-9.7-2.6
	c-5-5.9-3-13.9,2.6-18.4c1.6-1.3,3.9-2.7,6-4C59.4,57,60,56.3,60.2,55.5"/>
<path class="st0" d="M40.4,64.9c-1.1-1.1,0.3-0.8,0.5-0.6c0.1,0.1,3.8,1.3,3.9,5.1c0.1,3.8-2.2,6.2-1.7,8s4.9,3.9,5.6,5
	c0.3,0.2,1.2,1.8,1.6,4.7c0.8,3.3,1.8,2,2.9,2.9c0.4,0.8,0.3,1-0.9,0.9c-1.4-0.1-2.2-1.2-2.7-2c-0.5-0.9-0.5-3.1-1.4-4.9
	s-5-3.8-5.4-4.5s-1.7-1.7-0.8-3.9c0.9-2.2,1.8-4.9,1.6-6.2c-0.2-0.9-0.8-2.4-1.6-3.3C41.4,65.4,40.5,65.1,40.4,64.9"/>
<path class="st0" d="M52.9,72.6c0.2,0.2,0.3,4.3,4.3,4.2c4,0,4.9-0.9,7.7-0.2c4.1,0.6,7.1,7.8,1.7,11.5c-0.4-0.3-0.9-0.6-1.3-0.9
	c0-0.2,2-2,2.5-3.6s-0.1-4.7-3.1-5.5c-3.6-1-3.4-0.2-7.2-0.2C53.7,77.8,51.8,75.3,52.9,72.6"/>
<path class="st0" d="M63.2,84.6c0,0.2,0.4-1.4-0.9-0.6c-1.3,0.8-1.6,2.4-1.6,2.9s0.2,1.4,0.6,1.5c0.4,0.1,1.8-0.8,1.8-0.8
	s1.2-1.2,0.1-1.6C62.3,85,63.2,84.4,63.2,84.6"/>
<path class="st0" d="M39.1,67.1c-0.1-0.1-0.9-2.1,0.6-1c1.3,1.3,2,1.6,1.9,3.9c-0.1,3.5-2.3,5.4-1.8,8.2c0.4,2.8,2.9,3.7,4.1,4.6
	c1.2,1,3.4,1.6,3.4,5.3c0.5,4.2,1.5,4.6,2.6,5.4s3.8,0.2,4.6,0l1.8,1.2c0.3,0.2-9.5,5.1-10.1-6.6c-0.3-3.3-4.8-5.4-5.4-6.2
	c-0.6-0.8-3.6-2.7-1.4-7.6C42.3,69.1,39.2,67.1,39.1,67.1"/>
<path class="st0" d="M75.7,151.2c0.7,0,1.9,0.5,1.6,1s-1.3,0.7-1.5,0.6c-0.2-0.1-1.5-0.4-1.5-0.8C74.2,151.6,75,151.2,75.7,151.2"/>
<path class="st0" d="M98.4,152c-0.7,0-1.7,0.3-1.5,1s1.1,0.7,1.5,0.7s1.3-0.3,1.3-0.8C99.6,152.4,99.1,152,98.4,152"/>
<path class="st0" d="M88.4,145v5.5c0,0.1,2.1,0.8,2.1-0.7l0.1-4.8C91.1,144.8,88.3,143.8,88.4,145"/>
<path class="st0" d="M86.1,145v5.6c0,0-2.1,0.4-2.1-0.7l-0.1-4.8C83.5,144.7,86.1,143.7,86.1,145"/>
<path class="st0" d="M76.2,150.7c0.1,0.3,1.5,0.3,1.8,0.9c0,0.2,3-1.6,4.8-2.2c0.2,0,0-1,0-1.4C81.6,147.8,76.1,150.3,76.2,150.7"/>
<path class="st0" d="M98.1,151.3c-0.2,0.1-1.5,0.4-1.8,0.9c0,0.2-2.7-2-4.6-2.6c-0.3-0.3-0.1-1.6,0.1-1.4
	C92.5,148,98.2,150.9,98.1,151.3"/>
<path class="st0" d="M85,151.7l-1.6-1c0.1-0.3-2.6,2-4.2,2.7c-1.6,0.8-3.3,4.2-2.8,4.6l2.5-1c0-0.4,1.3-2.4,2.5-2.9
	C82.5,153.8,85,152,85,151.7"/>
<path class="st0" d="M90.3,151.6l-2.6,0.2c0.1-0.3-1.4,1.8-2.9,2.7c-1.5,0.8-3.9,2.9-3.4,3.4l1.3,1.5c0.2-0.1,2.7-3.2,3.8-3.7
	C87.6,155.2,90.3,151.9,90.3,151.6"/>
<path class="st0" d="M87.5,156.4c0.1-0.5,1.2-1,1.6-1.2c0.4-0.1,0.8,0.7,1.9,1.1c1,0.4,2.2,0.6,2.9,1.6c-0.3,1.1-1.2,1.8-1,1.9
	c-0.1,0-1.4-1.2-2.7-1.5C88.8,158,87.7,156.9,87.5,156.4"/>
<path class="st0" d="M90.1,153.5c0,0,1.1-1.2,1.1-1.6c0-0.5,1.3,1.1,3.4,1.6c2,0.6,4.5,3,4.3,3.7l-2.1,0.2c-0.2,0-1.5-1.8-3.2-2.1
	C91.1,154.7,90.1,153.5,90.1,153.5"/>
<path class="st0" d="M56.6,104.1c-0.1,0,0.5-0.2,0.6-1.2c-0.3-0.7-2.1-0.3-2.4-0.3c0.2-0.4-1.3-1.8-2.4-1.3c-0.2,0.2,1,0.7,0.5,1.6
	c-1.7,0.9-4.1,7.3-3.5,8.9c0.2,1.5-1.5,1.2-1.5,1.4c0.2,0.2,0.7,1.5,3.4,0c0.6,0,2.7,1,4.9,1.9c0.5-0.3-0.5,1.2-1,1.4
	c-0.2,0.2,1.2,1.1,3.2-0.6c1.5-0.3,2.8,0,7.5-1.1c0.4-0.5,0.2-1.2,0.3-1.7c-1.7,0.3-6.9,1.2-8,0.8c-2.5-0.8-5.2-2-5.8-2.3
	c-0.7-0.5-1.3-0.6-1.1-1.7c0.1-1.1,1.3-3.8,1.7-4.6c0.4-0.8,0.3-1.2,1.7-1.3C56.4,103.8,56.7,104.1,56.6,104.1"/>
<path class="st0" d="M84.4,111c0.1,0.1,0.1-0.5,0.2-1.4c0-0.2-1.4-0.9-2.5-2c0.2-0.8,0.1-2.4-1.8-2.8c-0.4-0.3,0.5,1.6-0.7,1.9
	c-1-0.3-3.3-0.8-3.9-1.1c-0.5-2.2-2.5-2.4-3.3-1.9c-0.2,0.1,2.3,0.9,0.5,1.9c-1.3,0-2.3,0.7-2.4,0.6c0-0.5-1.9-1.3-2.9-0.3
	c0,0,2.1,0.8,1.5,2.4c-0.2,1-0.7,2-1,3.1c-0.9,2.7-1,5-0.5,5.7c0.6,1.1,1.3,0.9,2.9,1.8c0.7,0.4-1.3,1.5-1.2,1.5
	c1.3,0.3,3.1,0,3.4-1.3c1.2,0.2,2.5,0.7,4.6,1c1.1,1.1-1.8,2-1.1,1.8c1.5-0.2,2.6,0,3.4-1.5c0.5,0.3,1.8,0.1,3.8,0.2
	c0.2-0.2,0,1.3-0.5,1.4c0.5,0.4,2.7-0.4,2.8-2.4c0.7-0.2,1.4-0.5,2.1-0.8c0.1-0.9,0.4-2,0.3-2.1c-4.7,2.2-7.4,2.9-16.7-0.1
	c-0.9-0.4-2.1-0.3-2.1-1.6c-0.1-1.3,1.2-5.6,1.7-6.3c0.6-0.7,1.2-1.4,2.6-1.6C76.7,106.7,83.5,109.7,84.4,111"/>
<path class="st0" d="M90.4,118.2l-1.1-1.2c-0.4-0.5-3,8.8-1.2,12.5l7.2,0.2c0.4-1,0.1-6.2,4.4-6.5c2.9-0.2,4.7-1,4.7-1
	c0.1,0.1,0.6,1.6,2.7,0.8c-0.1-0.2-1.4-0.9-0.3-2.3c2-1.4,5.3-2.9,3.9-7.3l-1.7,0.8c-0.1,0,0.3,2.2-1.1,3.5
	c-2.5,1.6-1.8,1.8-4.3,2.8c-2.5,0.9-8,1-8.9,4.3s-0.8,3.1-0.8,3.2l-4.8-0.2C88.2,125.2,90.2,118.2,90.4,118.2"/>
<path class="st0" d="M92.8,108.5c-0.1,0.6,0.2,1.2-0.2,1.4c-0.4,0.2-0.6,0-0.6,0.5c0,0.4-1.2,1-1.6,0.1c-0.3-0.9-0.1-2.8-0.1-3
	s0.4-1.7,2.7-1.1c1.3,0.5,3.1,0,4.2-0.4c1-0.5,2.4,0.1,2,1.4c-0.7,1.1-2.8,2.8-3.9,3.7c0.1-0.2-1,1.1,0.6,0.6
	c1.7-0.9,4.5-4.2,4.4-4.3c-0.1-0.1,1.9,0.8,3.1-1.5c0.2-0.1,0.8,1.4,1.6,1.8c0.3,0.1,0.6,0.6,0.6,0.7c0-0.1,0.4,0,0.6,0.7
	s1.3,1.5,1.6,1.2c0.3-0.2,1.1-0.7,1.2-1s0.4-0.5-0.2-0.8s-1.4-0.6-2.1-0.9c-0.7-0.4-2.4-2.9-2.3-2.9h1.3c0,0,1.2,1.2,1.3,1.6
	c0.1,0.4,1.4,0.8,2.2,0.7c0.8-0.1,3.9,0.7,3.1,2.9c-0.3,0.8-0.9,1.2-1.4,1.6c-0.9,0.7-1.7,1.3-2.5,1.5c-1.9-0.3-2.4-1.4-2.4-1.3
	s-0.4-0.5-1-0.5c-0.5,0.1-1.1-0.3-0.9-0.7c0.1-0.4,0.2-1,0.2-1h-0.6c0,0-0.7,1.7-1.7,1.6c-0.9-0.1-0.4-1.5-0.6-1.6l-0.8-0.2
	c-0.1,0-2.3,2.8-3.1,3.1c-0.2,0.1-0.6,0.3-0.7,0.6c-0.1,0.5-0.3,0.8-0.7,0.7c-0.4,0.5-1,0.8-1.7,0.5c-1.3-0.7-1.6-2-1.8-2.7
	c-0.2-0.7,1.4-2.5,2.5-1.9c0.5-0.2,1.8-1.4,2.4-2.1c0,0.2,1-1.2-0.3-0.8c-1.2,0.5-2.9,1-3.4,0.8C93.5,107.9,92.9,107.9,92.8,108.5"
	/>
<path class="st0" d="M110.9,119.2c0-0.4,0.7-1,0.8-1.2c0.1-0.2,3,0.3,3.6-0.9c0.8-1,1.7-2.7,2.3-3.8c0.4-0.1-1.4-1.4,0.5-3.1
	c0,0,0.2,1.5,1.1,1.4c1.3-0.1,1.7-0.8,1.8-0.6c0.1,0.2,0.1-2.3,2.3-2.5c0.1,0.4-0.6,1-0.2,1.7c1,0,2.7,0.7,2.7,1.7
	c-0.4,0.6-0.7,0.9-0.7,0.9s-0.7-1-1.8-0.9c-1.1,0.1-2.6,0.9-3.1,1.1s-1.6,0.9-2.1,2.2c-0.5,1.3-1.9,3.4-1.9,3.3
	c0-0.2-0.7,0.8-2.1,0.9C113.2,119.2,110.9,119.2,110.9,119.2"/>
<path class="st0" d="M109.6,120.3c-0.3-0.3-1.7,1.1-1.6,1.2c0.8,0.3,4.3,1.2,4.3,1.3c0,1.3,0.4,2.3,2.1,2.4c0-0.1-0.7-1.7,0.1-1.9
	c0.9,0.1,2.4,0.5,4.3,0.4c1.1-0.1,2.1-0.2,3.8-0.8c0,0.1,1.5,2,3.6,0.7c-0.1-0.2-1.2-0.1-1.2-1.2c1-1.4,0.9,0,3.4-2.4
	c0-0.3,2.1,1.3,3-1.5c-0.2-0.1-1.2,0.6-1.9-0.1c-0.7-1.1,0-1.6-0.4-1.5l-1.6,0.2l-0.3,1.7c0,0-0.3,0.9-4.2,2.1
	c-3.8,1.3-3.9,1.5-6.1,1.2C116.4,121.8,109.8,120.5,109.6,120.3"/>
<path class="st0" d="M105.6,98.2c-0.1-0.2,0,0.8,0.2,1.4c0.3,0.6,4.7,5.5,5.6,5.9s2,0.6,2.4,0.3c0.4-0.3-2.1-1.1-2.2-1.4
	C110.8,104,105.8,98.4,105.6,98.2"/>
<path class="st0" d="M104.5,94.5c-0.1,0.3,0.1,1.1,0.3,1.4c0.2,0.3,7.5,8.6,10.3,9.9c2.8,1.4,3.4,0.8,3.9,0.7c0.5,0,0.2-1.1-0.7-0.9
	c-0.9,0.2-3-0.8-3.8-1.5C113.6,103.5,104.6,94.2,104.5,94.5"/>
<path class="st0" d="M106.1,93.5c0-0.4-1.2-0.4-0.8,0.4c0.6,0.7,9.4,9.5,9.7,9.7c0.3,0.2,1.5,1,1.9,0.7s-0.1-0.3-0.4-0.6
	C116.1,103.6,106.3,93.8,106.1,93.5"/>
<path class="st0" d="M107.1,92.3c-0.1-0.5-1.2-0.3-0.6,0.6c1.1,1.3,8.9,8.7,11.9,11.4c2.9,2.4,3.8,1.8,6.6,0.8
	c-0.1-0.3-0.7-0.7-1.2-0.9c-0.4,0.2-1.1,0.4-1.7,0.5c-0.8,0.1-1.6-0.3-2.2-0.8C119.3,103.7,107.3,92.5,107.1,92.3"/>
<path class="st0" d="M107.5,90.4c-0.1-0.1-0.8,0-0.3,0.8c0.6,0.7,10.6,9.2,12.5,10.8c1.9,1.6,2.6,1.3,2.9,1.1
	c0.4-0.2-2.9-2.5-3.3-2.8C118.9,99.9,107.7,90.5,107.5,90.4"/>
<path class="st0" d="M108,85.5c0,0.1-0.2,0.6-0.1,1.1c0.7,0.6,15.7,12.7,17.1,13.7c1.4,1.1,2.7,2.1,3.2,1.3c0.4-0.8-1.9-2-2.5-2.6
	C124,98,108.2,85.6,108,85.5"/>
<path class="st0" d="M107.8,84.1c-0.2-0.1,0.1-1.2,0.2-0.9c0.1,0.3,23,16.6,24.1,17.1c1,0.6,1.9,1.4,0.9,2.6
	c-1.4,1.2-5.1,1.7-5.1,1.7s-1.6,0.1-3.1-1c-1.4-1.2-17.2-14.4-17.1-14.3c0,0.2,0.1-1.3,0.4-1.2c0.4,0,16.6,13.4,17,13.7
	c0.4,0.3,1.6,1.2,2.7,1.2c1.2-0.1,2.2-0.1,3.3-0.5c0.9-0.8,0.1-0.9,0-1.2c-0.2-0.3-9.3-6.6-9.6-6.8
	C120.6,93.9,107.9,84.2,107.8,84.1"/>
<path class="st0" d="M101.9,96.4c-0.2,0-1.1-0.1-1.1,0.1c0,0.1,1.3,4.4,2.4,5.8c1.2,1.5,2.5,1.8,2.3-0.2s-1.7-7.2-2-7.4
	c-0.4-0.2-0.7,0.8-0.7,0.9c0,0,1.3,4.2,1.4,4.8c0.1,0.7-0.1,1-0.7,0.5C102.9,100.2,101.9,96.5,101.9,96.4"/>
<path class="st0" d="M98.8,97.7c0-0.1,0.4-1.5,0.6-1.4s2.6,5.8,2.7,7.1c0.1,1.3,0,2.8-0.9,2.9s-1.9-0.9-2.6-1.5
	c-0.7-0.7-4.1-5.9-4.2-6.9c0,0,1,0.7,2,1.1c0,0.1,2,4.3,3.3,5.1c1.4,0.7,1.3-0.4,1.2-1.4C100.8,101.7,98.9,97.8,98.8,97.7"/>
<path class="st0" d="M93.3,99.4c0,0,0.4-0.9,0.5-0.8s1.7,3.2,1.8,3.4c0.1,0.2,0.1,0.9-0.5,0.3C94.5,101.8,93.4,99.5,93.3,99.4"/>
<path class="st0" d="M97.5,99c0.1-0.2,0.3-0.6,1-0.7c0.2,0.2,1.4,2.9,1.6,3.6s-0.1,1.2-0.8,0.3C98.3,100.9,97.6,99.3,97.5,99"/>
<path class="st0" d="M91.4,99.9c0-0.1,1.1-0.2,1.3,0.1c0.2,0.2,2,3.2,2.3,3.4c0.3,0.3,0.7,0.4,1,0.1s0.5-0.8,1,0.4
	c0.1,1.1-1.6,1.4-1.9,1.1C94.6,104.8,91.4,100,91.4,99.9"/>
<path class="st0" d="M83.6,91.7c0,0,0.3,2.1,0.5,2.8c0.2,0.7,0.5,0.6,0.5,0.1s0-1.4,0-2C84.5,92.4,84.2,91.8,83.6,91.7"/>
<path class="st0" d="M75.1,85.7V85c0,0-2.6-1.3-2.9-1.1c-0.3,0.2,1.1,2.8,1.3,3c0.2,0.2,2.1,1.3,2.4,1.2c0.2,0,0-0.5,0-0.6
	c-0.3-0.4-0.7-0.5-1.3-0.9C74.1,86.3,73.2,84.8,75.1,85.7"/>
<path class="st0" d="M78.2,86.2c0.2-0.1,0.7,0.5,0.9,1c0.2,0.5,0.1,1.2-0.1,1.2c-0.2,0.1-0.5-0.4-0.6-0.8
	C78.3,87.3,78,86.3,78.2,86.2"/>
<path class="st0" d="M77.8,92.6c-1.2-0.4-2.7-1.2-2.8-1.3c-0.1-0.1-0.6-0.7,0.3-0.5C76.4,91,80.1,92.6,77.8,92.6"/>
<path class="st0" d="M81.4,94.3c0,0,0.1,1.1,0,1.1c-0.1,0.1-2,0.5-2.6,0.7s-1.4-0.1-0.5-0.7C79,94.8,81.3,94.2,81.4,94.3"/>
<path class="st0" d="M84.2,87.8c0-0.2-0.1-0.6,0.1-0.9c0.3-0.2,6.1,7.9,6.2,8c0,0.1,0.1,0.6-0.4,0.2C89.2,94.1,84.4,88,84.2,87.8"/>
<path class="st0" d="M77.1,84.8c-0.2-0.4-0.8-1-1.2-1.1c-0.2-0.1,1.2,7.2,3.6,8.1C80,92,80.6,92,81,91.4c0.3-0.6,0.2-3.1,0.1-3.1
	s-0.7-0.5-0.9-0.4c-0.2,0.1,0.4,2-0.3,2.4c-0.7,0.4-1.4-1-1.5-1.3C78,88.5,77.1,85.7,77.1,84.8"/>
<path class="st0" d="M81.9,89.4c0.4,0.1,0.6,0.4,0.8,0.8c0.1,0.8,0.2,4.2,1.4,6.2c0.7,0.8,1.1,0.3,1.1-0.2c0.1-0.8,0.1-1.7,0.1-2.5
	c0.1-0.1,1,0.9,1,1c-0.1,0.6-0.2,2.7-0.3,3.1c-0.8,1.8-2.7-0.2-3.1-1.2C82.5,95.6,82,92,81.9,89.4"/>
<path class="st0" d="M83.7,88.6c0,0-1.1-0.2-1.3,0c0.2,0.3,2.4,2.9,4.2,5c1.9,2.1,2.8,3.5,3.7,4.5c0.9,1,1.8,1.4,2.4,0
	c0.4-1.7-0.6-3.1-0.7-3.5s-3.6-5.5-3.7-5.6c-0.2-0.1-0.9-0.2-1.2-0.1c0.2,0.3,3.7,4.7,4.4,6.4c0.5,1.3,0.1,1.5-0.1,1.6
	c-0.4,0.1-0.8,0-1.6-0.9C88.9,94.6,83.8,88.6,83.7,88.6"/>
<path class="st0" d="M80.8,93.5c0.5-0.2,0.9-0.9,0-0.9c-2.2,0.2-4.7,2.2-5.8,3.9c-0.7,1-0.5,2.4,1.6,2.1c2.1-0.4,4.3-1,5.1-1.3
	c0.5-0.2,0.4-1-0.3-1c-0.7,0.1-3.8,0.8-4,0.9c-0.2,0.1-1.8,0.3-0.8-1.1C77.6,94.9,80.3,93.7,80.8,93.5"/>
<path class="st0" d="M76.7,90c0-0.1,0.1-0.7-0.1-0.8c-0.3-0.1-1.6-0.6-2.4-0.2c-0.7,0.4-3.2,2.5-1.7,3.2c1,0.5,3.8,1.6,3.9,1.6
	s0.6-0.6,0.6-0.7s-3.8-1.3-3.5-2.2c0.2-0.3,0.4-0.8,1.3-1.2C75.2,89.6,76.1,89.8,76.7,90"/>
<path class="st0" d="M74.9,95c0.2,0,0.4-0.2,0.6-0.5S72,93.1,71.3,93s-1.6-0.1-1.9,0s-2.5,1.4-1,1.7c1.5,0.3,4.8,1.2,5.5,1.5
	c0.3-0.1,0.6-0.7,0.5-0.8c-0.2-0.2-3.2-1.1-4.1-1.4c-0.6-0.2-0.3-0.5,0.4-0.6C72.6,94.1,74.7,94.9,74.9,95"/>
<path class="st0" d="M69.9,85.9c0,0,0.6-1.3,0.8-1.4c0.4,0.3,2,1.7,1.8,3.3c-0.2,1.5-0.6,1.9-0.9,2.2c-0.2,0.3-2,1.5-2.4,1.7
	c-0.2,0.1-2.2,2-2.4,2.2c-0.2,0.2-1.2,0.8-2.1,0.2c-0.9-0.6-1-1.2-1.3-1.2s-1.8-0.4-2.1-2c-0.3-1.5,2.5-2.6,2.9-2.6
	c0.5,0.1,1.7,0.2,1.5,1.7c0.2,0,0.6,0.6-0.4,0.6c-0.8-0.2-0.9-0.4-0.9-0.4c-0.2-0.1-1.3-0.4-1.1,0.6c0.1,0.3,1.3,0.9,1.7,1.5
	c0.4,0.1,0.4,0.2,0.8,0c0.4-0.1,1.7-1.9,3.1-2.6c1.2-0.8,1.7-1.2,1.7-2.2C70.9,86.8,70.1,86,69.9,85.9"/>
<path class="st0" d="M59.9,83.9c1-0.1,1.1-0.3,0.8,0.4c-0.3,0.7-1,0.5-0.9,2.5s0.6,1.5,0.7,2c0.1,0.5,0.4,0.2,0,0.9
	c-0.3,0.7,0.4,2.2,0.3,2.1c-0.1-0.1-1,0.4-1.8-0.6s-0.9-1.5-0.7-2.4c0.2-0.8-0.7-2.1-0.6-3.1C57.8,84.8,58.9,84,59.9,83.9"/>
<path class="st0" d="M63.2,93.5c0,0-1.7-0.8-1.9-1s-1.4,0.1-1.3,0.3c0,0.2,0.7,1,1.9,1.3C63.2,94.5,63.2,93.5,63.2,93.5"/>
<path class="st0" d="M60.7,94.5c0-0.1-1.3-0.9-1.4-1.1c-0.1-0.2-1,0.4-1,0.4s0,0.7,0.9,0.8C60,94.8,60.6,94.5,60.7,94.5"/>
<path class="st0" d="M57.5,94.2l1.2,0.9c0,0-0.7,0.2-1,0.2c-0.3-0.1-1-0.5-1-0.7C56.7,94.3,57.4,94.2,57.5,94.2"/>
<path class="st0" d="M54.8,88.1c0.3,0,0.9,1.2,1,2.1c0.1,0.8-0.1,1.8,0.3,1.9c0.4,0.1,0.4,1.3,0.7,1.6c0.3,0.3-0.7,0.1-1.3-0.3
	s-0.9-1.5-0.8-2.4c0.1-0.9-0.7-1-0.3-2C54.7,88.2,54.5,88.1,54.8,88.1"/>
<path class="st0" d="M56.7,85.7c0.3,0,0.3,1.7,0.7,2.7c0.3,1,0,0.9,0.2,2.2c0.2,1.4,1.6,1.5,1.4,2c-0.2,0.5-1.3,0.6-1.8,0.1
	c-0.6-0.6-0.8-1.4-0.7-2.3s-1.1-2.5-0.9-3.3C55.9,86.2,56.4,85.7,56.7,85.7"/>
<path class="st0" d="M79.2,53.7c0.4-0.4,0.9-0.2,1-0.1c-0.1,0.2-1.2,5.3-1.4,6.1c-0.2,0.8,0,1.2,1,1.1c0.9-0.1,0.9,0.2,1.4-0.1
	c0.6-0.3,0.5-0.7,0.7-1.2c0.2-0.6,1.2-6.3,1.2-6.7s1.3-0.7,1.3-0.2c0,0.6-1,7.1-1.2,7.4c-0.2,0.3-0.2,1.6-1.3,2
	c-1.1,0.4-3.2,0.6-3.5,0.5c-0.4-0.1-1.8-0.1-1.3-1.9C77.5,58.7,79.1,54,79.2,53.7"/>
<path class="st0" d="M85.4,51.8c0.3-0.4,0.8-0.7,1.1-0.7c0,0.1-0.5,7.8-0.4,8.1s2.1-0.2,2.4-1.5c0.3-1.1,0.6-6.7,0.5-7.9
	c0-0.3,0.6-0.9,0.9-0.7s-0.2,8.4-0.3,8.5c0,0.1-0.1,1.5-0.6,2.1s-2.6,1.6-3.1,1.4c-0.5-0.1-1.3,0-1.2-1.8
	C84.8,57.5,85.4,51.9,85.4,51.8"/>
<path class="st0" d="M93.6,56.3l-0.1-2.5c0-0.3,1.6-1.1,3.5-4c0.9-1.3,0.6-3.1,0.5-3.5c-0.1-0.5-1.1-7.2-2.7-10.5
	c-0.9-1.8-1.2-2.2-2.3-2.8c-1.1-0.6-6.1-3.1-6.3-3.4c-0.2-0.3-2-0.8-1.9-3c0.1-2.1,0.6-2.9,2.7-3.4s9.9,0.6,10.7,0.7
	c0.8,0.1,7.1,1.5,11.5,3.6c0.5,0.2,6.1,3.2,8.8,4.5c0.5,0.2,1.3,0.2,2.1,0c0.8-0.1,2.2,0.2,1.4,1.3c-0.8,1-2.8,2.5-5.5,2.6
	c-2.6,0.1-4.1-0.7-4.4-0.8c0,0.1,0.4-1.3,0.3-2.3c0.1-0.4,1,0,1.1,0c0,0-0.3,1.4,1.5,1.7c0.4,0.1,3.4,0.3,2.3-1
	c-0.3-0.3-4-2.7-7.9-4.5c-3.4-1.6-7.3-2.8-8.8-3.2c-3.2-0.7-8.9-1.6-11.6-1.3c-2.1,0.2-1.8,1.7-2,1.9c-0.3,1.6,1,2,2.5,2.4
	c1.5,0.5,5.1,2,5.9,3c0.8,0.8,2.3,2.7,3.4,7c1,4.3,1.2,6.2,1.3,7.2c0.1,1,0.1,3.6-0.3,4.3C98.8,50.9,94.7,55.8,93.6,56.3"/>
<path class="st0" d="M89.2,27.7c-1.1-0.4-1.7-1-0.6-1.3c1.8-0.4,6.4,0.5,6.7,0.7c1.4,0.6,3.9,2.9,4.5,4.1c1.1,1.4-0.5,1.5-0.5,1.5
	s-2.2-0.1-2.5-0.4c-0.3-0.2-1-1.2-1-1.2s1.3,0.1,1.7,0c0.4-0.1,0.8,0.1,0.3-0.4s-1.9-2-2.4-2.2C94.5,28,91,27.8,89.2,27.7"/>
<path class="st0" d="M100.3,27.7c-0.1-0.1-1.9-0.5-2.2-0.3c0.5,0.8,2.9,3.2,3.2,3.5c0.3,0.3,3.2,1.4,3.8,1.4c0.7,0,0.6-0.1,0.6-0.6
	c0-0.6-0.8-2.6-0.9-2.6s-2-0.8-1.9-0.4c0.2,0.4,0.8,1.5,0.5,1.5s-0.1,0.2-1.1-0.2C101.7,29.5,100.5,28.1,100.3,27.7"/>
<path class="st0" d="M107.6,31.2c-0.2-0.4-0.2-1.3-0.9-1.4c-0.7-0.1-0.7-0.1-0.7-0.1s0.6,1.6,0.5,2.2c0,0.5-0.2,0.8,0.4,1.1
	s2.2,1.3,2.6,1.3c0.4,0.1,1.3,0,1.3-0.5s0.1-2,0.1-2s-1.5-1.2-1.5-0.7s0,1.2,0,1.2C109.2,32.8,107.6,32,107.6,31.2"/>
<path class="st0" d="M102.9,33.7c-0.3-0.4-0.6-0.7-0.5-1.3c1.9,0.4,9.8,4.2,10.4,4.8c0.5,0.5,1.8,0.9,1.6,3
	c-0.2,2.1-0.7,2.3-1.1,2.3c-0.5,0-0.6-0.2-1.8-1.1c-1.2-0.9-6.1-3.7-7.4-4.3c-0.2-0.2-0.3-0.9-0.3-1.3c0,0,4,1.6,7.8,4.1
	c1.4,0.5,1-1,0.2-1.7C111.5,37.9,103.2,33.9,102.9,33.7"/>
<path class="st0" d="M104.7,39.9c-0.2-0.4-0.3-0.9-0.3-1.5c1.2,0.4,7.4,4.3,8,4.9c0.7,0.6,1,0.4,1.1,1.9c0.1,1.4-1.2,3.7-1.6,3.7
	c-0.3,0-0.8-0.1-1.7-0.6c-0.9-0.5-3.4-2.2-4.3-2.7c-0.4-0.2-0.3-1.1-0.3-1.6c1.2,0.6,4.4,2.9,5.4,3c0.9,0.1,1.2-1.9,0.6-2.9
	C111.5,43.6,104.9,39.9,104.7,39.9"/>
<path class="st0" d="M105.8,48.1c0-0.3,0.1-0.6,0.1-1.1c0.8,0.1,4.6,3.1,4.8,3.5c0.2,0.5,0.8,0.6,0.4,1.7c-0.4,1.1-0.9,2-1.5,2.5
	c-0.7,0.6-1.2,0.1-1.7-0.3c-1-0.8-2.2-1.4-2.8-2c0-0.1,0.4-0.9,0.4-1.2c0.6,0.4,2.4,1.6,3.1,1.6c0.7-0.1,0.7-1.2,0.8-2
	C109.4,50.5,106,48.1,105.8,48.1"/>
<path class="st0" d="M104,54.7c0.1-0.2,0.3-0.5,0.5-1.1c0.8,0.4,3.1,2.3,3.2,2.7s0.2,0.6,0,1.3s-1.3,2.5-2.1,2.9
	c-0.8,0.4-1.6-0.2-2-0.6c-0.9-1-1.5-1.3-2-2c-0.1-0.3,0.4-0.8,0.7-0.9c0.5,0.5,1.9,1.5,2.5,1.6c0.6,0,1.1-0.9,1.4-1.7
	C106.3,56.7,104.3,54.7,104,54.7"/>
<path class="st0" d="M100.3,59.4c0.1-0.2,0.3-0.2,0.5-0.8c0.7,0.4,2.6,2.9,2.7,3.3c0.1,0.4,0.1,0.6-0.3,1.3s-1.4,1.6-2.3,2.2
	c-1,0.7-1.1,0.4-1.6-0.4c-0.6-1.1-1.1-1.5-1.7-2.6c0-0.2,0.3-0.4,0.5-0.7c0.5,0.6,1.4,1.8,2,2c0.7,0.1,1.6-0.9,1.9-1.7
	C102.1,61.9,100.5,59.5,100.3,59.4"/>
<path class="st0" d="M97.7,33.3c0,0.1-0.5,0.9,0.7,1.2c1.1,0.4,2.3,0.5,2.4,1s0.2,0.7,0.1,0.8c-0.1,0.2-1.4,0.2-2-0.2
	c0,0-0.1,1.4,0.4,1.5s1.9,0.6,2.3,0.7c0.5,0.2,1-0.3,1.1-1s-0.7-3.4-1.4-4.4C100.3,33.5,98.1,33.4,97.7,33.3"/>
<path class="st0" d="M99.5,39c-0.1,0-0.6,1,0.7,1.5c1.5,0.5,2.1,0.5,2.3,1.1c0.2,0.9,0.3,2.1-0.1,2s-1.5-0.5-2.2-0.9
	c0,0,0.1,1.6,0.4,1.8s2.2,1.3,2.6,1.5c0.5,0.2,1.1,0.2,1.2-0.7s-0.6-5.1-1.4-6.3C102.4,39.7,100.1,38.8,99.5,39"/>
<path class="st0" d="M100.8,45.7c0,0.2-0.5,0.9,0.1,1.6c0.7,0.8,2,1.2,2,1.9s-0.3,1.1-0.6,1.4c-0.2,0.3-1.7-1-1.7-1
	c0,0.1-0.9,1.6-0.6,1.8c0.3,0.3,1.3,1.2,1.7,1.4c0.5,0.2,1.2,0.2,1.7-0.5s1.3-3.8,1.2-5.1C103.9,47.8,101.5,45.8,100.8,45.7"/>
<path class="st0" d="M99.4,52.3c0.1,0.1-0.9,0.3-0.7,1c0.4,0.8,1.8,1.5,1.6,2c-0.2,0.5-0.7,1-1.1,1c-0.3,0.1-1.9-1.7-1.9-1.6
	c0,0.1-0.9,0.5-0.7,0.8c0.2,0.3,1.2,1.6,1.5,1.9c0.4,0.3,0.8,1,1.5,0.7s3-2.8,3.2-3.8C101.4,54.3,100.3,53,99.4,52.3"/>
<path class="st0" d="M96,55.3c0-0.1-1,0.6-0.6,1.6c0.3,0.4,1.5,1.7,1.5,2.3c-0.1,0.4-0.5,0.5-0.7,0.9l0.9,1.2
	c0.2,0.3,1.9-1.7,2.4-2.4C97.6,58.7,95.9,55.4,96,55.3"/>
<path class="st0" d="M102.2,71.6c0,0,0.1,1.2,0.2,1.4c0.1,0.3,2.1-1.7,2.7-2.2c0.5-0.4,1.1-1.2,0.5-1.8c-0.6-0.7-2.2-3-2.7-3.3
	s-1,0.5-1.1,0.6s2.1,2.3,2.2,2.6c0.1,0.3,0.3,0.4-0.2,1.1C102.9,71,102.2,71.6,102.2,71.6"/>
<path class="st0" d="M103.6,64.9c0-0.9,0.6-0.9,0.7-0.8s2.1,3,3.5,3c0.5,0,0.9,0,1.2-0.1c0.7-0.3,1-0.9,0.8-1.5
	c-0.4-0.9-2.7-3.5-3.3-3.9c0-0.2,0.5-0.8,0.7-0.7s3.8,3.5,4.4,4.7c0.6,1.3-0.6,2.5-1.2,2.9c-0.6,0.5-2.3,0.7-3.1,0.2
	C106.4,68.3,104.5,66.4,103.6,64.9"/>
<path class="st0" d="M107.9,60c0.2-0.6,0.6-0.8,0.7-1.1c0-0.1,4.4,4.5,5.5,4.9c1.3,0.5,2.5-0.6,2.2-1.3c-0.4-0.9-4.9-6.1-5.7-6.7
	c0-0.2,0.4-0.8,0.7-0.8c0.3,0,6.1,5.9,6.8,8.2c0.7,2.3-3.4,2.7-4.2,2.4C112.5,65.3,108.7,61.1,107.9,60"/>
<path class="st0" d="M111.9,54.1c0.2-0.6,0.3-1.2,0.3-1.4c0-0.3,7.4,7.7,8.4,8.5c1.7,1.3,2.8,0,2.2-1.3c-1.2-2.4-8.4-10.3-9.3-10.6
	c0.2-0.1,0.6-0.8,0.7-1.2s9.6,8.7,10.5,12.6c0.8,3.3-3.5,3.4-4.5,2.2C119.3,62,112.8,55.1,111.9,54.1"/>
<path class="st0" d="M114.4,46.6l0.3-1.8c0-0.3,4.8,4.2,7.5,7.3s3.4,4.7,5.7,7.3c1.8,1.6,1.7,0,1.2-0.7c-2.1-4.1-12.8-15.8-14-15.7
	l0.4-1.8c0.1-0.6,13,11.6,15.8,18.8c1.3,3.3-3.5,2.3-4.4,1c-1.4-2-4.4-6.1-5.4-7.2C116.5,48.5,114.9,47.1,114.4,46.6"/>
<path class="st0" d="M115.2,37.7l0.5,2c1.2,0.7,9.5,7.9,13.4,14.3c4,5.2,4.2,10.7,14.1,11.1c1.2-0.3,0.3-1.2,0.4-1.2
	c0,0-2-1.8-2.6-3.3s-3-6.8-6.6-12.3c-3.6-5.5-9.8-11.4-12.7-13.4l-1.2,0.8c7,6,13.3,13,17.2,21.2c2,4,2,4,2,4.2
	c0,1.3-0.5,1.4-1.9,0.8c-4.5-1.9-4.1-4.6-7.5-9.1C126.5,47.7,120.9,40.9,115.2,37.7"/>
<path class="st0" d="M107,70.1c0,0-0.4,0.6-0.7,1.2c0,0.2,1.5,1.5,1.6,1.8c0.3,0.6,1.6,1.4,3.5,1.8c2,0.5,2.2,1.1,2.5,1.6
	s4.1,5.8,4.4,6.3c0.4,0.5,2.7,3.8,2-0.1c-1.2-3.6-2.4-6.8-2.4-6.8l-1.7-0.8l1.3,3.4c0.1,0.2,1.5,3.3-0.4,0.5
	c-1.3-2.1-2.6-4.1-2.7-4.1s-1.6-1.3-2.7-1.5c-1.2-0.2-2.4-1.2-3-1.5C108.1,71.8,107,70,107,70.1"/>
<path class="st0" d="M113,67.8l-0.9,1.4c-0.3,0.5,1.3,1.7,1.6,2.7c0.3,1,2,2.3,3.4,2.5c1.9,1.2,2.9,2,3.5,2.6c0.7,0.6,3,6.8,3.2,7.9
	c0.2,1,2.5,8.3,2.1,0.1c-0.8-7.9-2-9.9-3.4-10.8l0.4,2.3c0.4,0.2,1.4,3.6,1.5,4.8c0.1,1.3,0.5,4.2-0.5,0.7c-1-3.6-2.3-6-2.4-6.1
	s-2-2.3-4.1-3.1C115.2,71.9,113.3,67.4,113,67.8"/>
<path class="st0" d="M119.5,64.9l-1,1.1c-0.5,0.5,2.1,4.5,2.7,5.6c1.8,2,4.9,2.7,5.3,7.5c0.1,1,0.7,4,2.3,7.6c0.5,1.2,1.5,3,1.6,4.6
	c0.3,1.6,1.6,11,1.9,3.3c0-0.8-0.1-1.9-0.1-3.1c-0.4-7.4-1.1-12.4-2-15.1c-0.6-1.7-1.3-2.1-1.8-2.6l0.6,3c0.3,0.1,0.4,1.8,1.2,5.5
	c0.4,1.9,0.3,3.7,0.2,3.9c-0.1,0.1-0.9-1-1.5-3.3c-1.3-5.9-1.8-9.3-4.8-11.4C121.4,69.6,119.7,64.6,119.5,64.9"/>
<path class="st0" d="M125.8,62.8l-0.6,1.2c-0.4,0.8,1.7,4.8,2.1,6.2c1.2,1.9,4.3,3,4.9,10.4c0.1,1.1,0.4,2.7,1.3,6.8
	c0.3,1.4,1.7,3.1,1.5,4.8c-0.2,1.9,0.6,13.1,1.6,4.3c0.1-0.9,0.2-3.4,0.3-4.7c0.6-8.1-0.4-11.1-0.9-14.2c-0.3-1.9-1.5-2.4-2-2.7
	l0.6,3c0.2,0.1,0.7,5.1,1,9.3c0.2,2.3-0.4,0.4-0.5,0.3s-1.6-5.7-1.8-8.4c-0.4-5.1-1.2-5.7-3.8-8.7C127.4,67.8,126.4,62.4,125.8,62.8
	"/>
<path class="st0" d="M133,62.2l-1.6,0.8c-0.1,0.1,1.4,6.7,2,7.9c0.5,1.4,2,2.2,4,5.2c0.6,0.8,0.3,8.8,1,12.8
	c0.3,1.4,1.4,6.1,1.2,7.8c-0.6,2.5-1.4,11.8,1.6,3.5c0.3-0.8,0.6-1.8,0.7-3.1c0.6-2.1,0.2-7.2,0.5-11.8c0.3-3.5,2.2-6.8,1.3-10.3
	c-0.9-4.1-1.3-6.5-2-8.9l-1.6-0.2c0.7,3.7,1.8,8,2.2,11c-0.4,2.8-0.9,4.2-1.3,6.1c-0.1,0.3-0.2,3.1,0,7.4c0.1,3.5-0.8,1.8-1-0.6
	c0-0.2-0.5-8.3-0.5-11c0-4.1-1.6-5.3-3-7.1C134.4,68.9,134.2,65.4,133,62.2"/>
<path class="st0" d="M142.9,45c-0.9,0-1.6-0.1-2.2-0.4c-0.6-0.3-1-0.7-1.4-1.3c-0.6-1-0.6-2.1-0.1-3.4c0.5-1.2,1.5-2.3,2.9-3.2
	s2.8-1.3,4.1-1.3c1.3,0.1,2.2,0.6,2.8,1.6c0.4,0.7,0.6,1.3,0.6,2.1c0,0.1,0.1,0.2,0.2,0.3c0.1,0.1,0.3,0.1,0.4,0.1h0.2l0.2,0.3l-3,2
	l-0.2-0.2c0.7-0.6,1.2-1.3,1.3-2c0.2-0.7,0.1-1.3-0.3-2c-0.4-0.7-1.1-1-2.1-1c-1,0.1-2.1,0.5-3.4,1.3c-1.3,0.8-2.2,1.7-2.7,2.6
	c-0.5,0.9-0.5,1.7-0.1,2.4c0.3,0.5,0.7,0.9,1.2,1.1c0.5,0.2,1.1,0.4,1.9,0.4L142.9,45z"/>
<path class="st0" d="M129.6,29.9l3.7-1.3l1.1-4.2c0.1-0.5,0.2-0.8,0.1-1c0-0.2-0.2-0.4-0.4-0.7l0.3-0.3l1.3,1.1l1.3,1.1l-0.2,0.3
	c-0.4-0.3-0.6-0.4-0.8-0.4c-0.2,0.1-0.4,0.3-0.5,0.7l-0.7,2.8l2.4-0.8c0.6-0.2,0.9-0.4,1.1-0.6c0.1-0.2,0-0.5-0.3-0.8l0.3-0.3l1,0.9
	l1,0.9l-0.2,0.3c-0.3-0.2-0.6-0.3-0.9-0.3c-0.2,0-0.7,0.1-1.3,0.3l-3.3,1.1l-1.2,4.6c-0.1,0.5-0.2,0.9-0.2,1c0,0.2,0.2,0.4,0.4,0.6
	l-0.2,0.3l-1.3-1.1l-1.3-1.1l0.3-0.3c0.3,0.3,0.6,0.4,0.8,0.3c0.2-0.1,0.3-0.3,0.4-0.8l0.8-3.2l-2.8,1c-0.6,0.2-0.9,0.4-1,0.6
	c-0.1,0.2,0,0.5,0.3,0.8l-0.2,0.3l-1-0.9l-1-0.9l0.2,0.2c0.3,0.1,0.5,0.2,0.8,0.2C128.6,30.2,129,30.1,129.6,29.9"/>
<path class="st0" d="M111.7,18.4c-0.4,0.9-0.6,1.5-0.6,1.8s0.2,0.6,0.7,0.8l-0.2,0.3l-1.3-0.6l-1.3-0.6l0.2-0.3c0.5,0.2,0.8,0.2,1,0
	s0.6-0.7,1-1.6l2.7-5.8c0.2-0.5,0.3-0.8,0.2-1c-0.1-0.2-0.3-0.4-0.7-0.6l0.2-0.4l1.1,0.5l1.1,0.5l-0.7,8.5l6-6.1l1.1,0.5l1.1,0.5
	l-0.2,0.4c-0.5-0.2-0.8-0.2-1,0s-0.5,0.6-0.9,1.4l-2.5,5.4c-0.3,0.8-0.5,1.3-0.5,1.5c0,0.3,0.2,0.5,0.7,0.8l-0.2,0.3l-1.6-0.7
	l-1.6-0.7l0.2-0.4c0.5,0.2,0.8,0.2,1,0.1s0.4-0.4,0.7-0.9l2.9-6.3l-6.5,6.6h-0.1h-0.1l0.7-9L111.7,18.4z"/>
<path class="st0" d="M22.2,59l-7.9-3.2l0,0c-0.3,0.7-0.3,1.3,0,1.8s0.8,1,1.7,1.4l-0.2,0.4l-1.6-0.6l-1.6-0.7l1.4-3.6l1.4-3.6
	l1.6,0.6l1.6,0.6l-0.1,0.3c-0.9-0.3-1.6-0.3-2.2-0.1c-0.6,0.2-1,0.6-1.2,1.3v0.1l7.9,3.2c0.4,0.2,0.8,0.2,1,0.2
	c0.2-0.1,0.4-0.3,0.6-0.6v-0.1l0.4,0.2l-0.8,2l-0.8,2L23,60.4v-0.1c0.1-0.3,0.1-0.6,0-0.8C22.9,59.3,22.6,59.2,22.2,59"/>
<path class="st0" d="M20.8,78.5h-0.5v-0.1c0-0.4-0.1-0.6-0.3-0.8c-0.2-0.2-0.5-0.3-1-0.3l-7.6-0.4c-0.5,0-0.8,0-1,0.2
	c-0.2,0.1-0.3,0.4-0.3,0.8V78H9.6l0.2-3.2l0.2-4l1.7,0.1l1.7,0.1v0.3c-1.1,0.1-1.8,0.3-2.2,0.7c-0.4,0.4-0.6,1.1-0.7,2.1v0.1
	c0,0.3,0,0.5,0.2,0.6c0.1,0.1,0.4,0.2,0.7,0.2l3.5,0.2V75c0-0.6-0.1-1-0.4-1.3c-0.3-0.4-0.9-0.6-1.9-0.8v-0.3l2.8,0.1l2.8,0.1v0.3
	c-1,0.1-1.7,0.3-2,0.5c-0.3,0.2-0.5,0.6-0.6,1.2V75l3.6,0.2c0.5,0,0.8,0,1-0.1c0.2-0.1,0.3-0.4,0.3-0.7c0-0.9-0.1-1.6-0.5-2.1
	s-1.1-1-2.2-1.5l0.1-0.3l1.7,0.4l1.7,0.4l-0.2,4.1L20.8,78.5z"/>
<path class="st0" d="M119.9,25.2l0.3-0.4l0.1,0.1c0.3,0.2,0.6,0.3,0.8,0.2c0.2-0.1,0.5-0.3,0.7-0.7l4.1-6.3c0.3-0.4,0.4-0.7,0.3-1
	c0-0.3-0.2-0.5-0.5-0.7l-0.1-0.1l0.3-0.4l2.7,1.7l3.5,2.2l-0.9,1.4l-0.9,1.4l-0.3-0.2c0.4-1,0.6-1.7,0.4-2.2c-0.1-0.5-0.7-1-1.5-1.6
	h-0.1c-0.2-0.2-0.4-0.2-0.6-0.1c-0.2,0-0.3,0.2-0.5,0.5l-1.9,2.9l0.1,0.1c0.5,0.3,1,0.4,1.4,0.3s0.9-0.6,1.5-1.3l0.3,0.2l-1.5,2.3
	l-1.5,2.3l-0.3-0.2c0.4-0.9,0.6-1.5,0.6-2c0-0.4-0.3-0.8-0.8-1.1l-0.1-0.1l-1.9,2.9c-0.3,0.4-0.4,0.7-0.4,0.9c0,0.2,0.2,0.4,0.5,0.6
	c0.8,0.5,1.5,0.7,2.1,0.6s1.4-0.4,2.4-1.1l0.2,0.2l-1.1,1.3l-1.2,1.3l-3.6-2.2L119.9,25.2z"/>
<path class="st0" d="M104.2,11c0-0.8-0.2-1.5-0.7-2c-0.4-0.6-0.9-0.9-1.6-1c-0.5-0.1-0.8,0-1.2,0.3c-0.3,0.2-0.5,0.6-0.6,1.1
	c-0.1,0.4,0,0.7,0.2,1.1c0.2,0.4,0.6,0.8,1.2,1.2c1,0.8,1.7,1.5,2,2.1s0.4,1.2,0.3,1.8c-0.2,0.9-0.6,1.5-1.3,1.9
	c-0.7,0.4-1.6,0.5-2.6,0.4c-0.6-0.1-1.1-0.3-1.6-0.7C98.1,17,97.9,17,97.8,17c-0.2,0-0.3,0.1-0.4,0.3l-0.1,0.1l-0.4-0.1l0.2-3.4
	l0.5,0.2c0.1,0.8,0.4,1.5,0.8,2.1c0.5,0.6,1,0.9,1.7,1c0.6,0.1,1.1,0,1.5-0.3s0.7-0.7,0.8-1.3c0.1-0.4,0-0.8-0.3-1.2
	s-0.8-0.9-1.5-1.5c-0.8-0.6-1.3-1.2-1.7-1.8c-0.3-0.6-0.4-1.1-0.3-1.6c0-0.7,0.4-1.3,1-1.8c0.6-0.4,1.3-0.6,2.2-0.5
	c0.6,0.1,1.1,0.3,1.7,0.7c0.1,0.2,0.3,0.2,0.4,0.2c0.2,0,0.3-0.1,0.4-0.2l0.1-0.2l0.4,0.1l-0.3,3.3L104.2,11z"/>
<path class="st0" d="M160.5,79.2c0.8-0.2,1.4-0.6,1.9-1.2c0.4-0.5,0.6-1.1,0.6-1.7c-0.1-0.4-0.2-0.8-0.6-1c-0.3-0.2-0.7-0.3-1.3-0.3
	c-0.4,0-0.7,0.2-1,0.5s-0.6,0.8-0.9,1.5c-0.5,1.2-1.1,2-1.5,2.4c-0.5,0.5-1.1,0.7-1.7,0.8c-0.9,0.1-1.7-0.2-2.3-0.7
	c-0.6-0.6-1-1.4-1.1-2.4c-0.1-0.6,0-1.1,0.3-1.7c0.1-0.2,0.1-0.4,0.1-0.6c-0.1-0.1-0.2-0.3-0.4-0.3l-0.1-0.1V74l3.4-0.7v0.4
	c-0.8,0.3-1.4,0.7-1.9,1.3c-0.5,0.6-0.7,1.2-0.6,1.9c0.1,0.6,0.3,1,0.7,1.3s0.9,0.4,1.5,0.4c0.4,0,0.7-0.2,1.1-0.6
	c0.3-0.4,0.7-1,1.1-1.8c0.4-0.9,0.9-1.6,1.3-2c0.5-0.5,1-0.7,1.5-0.7c0.8-0.1,1.6,0.1,2.2,0.6c0.6,0.5,0.9,1.1,1,1.9
	c0.1,0.6,0,1.2-0.3,1.7c-0.1,0.2-0.1,0.3,0,0.5s0.2,0.3,0.3,0.3l0.2,0.1V79l-3.4,0.6L160.5,79.2z"/>
<path class="st0" d="M15.6,61.7c-0.8,0-1.5,0.1-2.1,0.5s-1,0.9-1.1,1.5c-0.1,0.4,0,0.8,0.2,1.1c0.1,0.3,0.5,0.5,1,0.7
	c0.4,0.1,0.7,0,1.1-0.2c0.4-0.2,0.8-0.6,1.4-1.1c0.9-0.9,1.7-1.5,2.3-1.8s1.2-0.4,1.9-0.2c0.9,0.2,1.5,0.7,1.9,1.4s0.4,1.6,0.2,2.6
	c-0.1,0.6-0.4,1-0.8,1.5c-0.2,0.2-0.3,0.4-0.3,0.5c0,0.2,0.1,0.3,0.3,0.4l0.1,0.1l-0.1,0.4l-3.4-0.4l0.1-0.4c0.9,0,1.6-0.2,2.3-0.7
	c0.6-0.4,1-0.9,1.2-1.6c0.1-0.6,0.1-1-0.2-1.4c-0.3-0.4-0.7-0.7-1.3-0.8c-0.4-0.1-0.8,0-1.2,0.2c-0.4,0.3-1,0.7-1.6,1.4
	c-0.7,0.7-1.3,1.2-1.9,1.5c-0.6,0.3-1.2,0.4-1.7,0.2c-0.8-0.2-1.4-0.6-1.8-1.3c-0.4-0.6-0.5-1.3-0.3-2.1c0.1-0.6,0.4-1.1,0.8-1.6
	c-0.1,0,0-0.2,0-0.4s-0.1-0.3-0.2-0.4l-0.2-0.1l0.1-0.4l3.4,0.5L15.6,61.7z"/>
<path class="st0" d="M44.2,21.7c-0.6-0.5-1.3-0.8-2-0.9s-1.3,0.1-1.8,0.5c-0.4,0.3-0.5,0.6-0.6,1c0,0.4,0.1,0.8,0.4,1.2
	c0.2,0.3,0.6,0.5,1,0.6s1,0.1,1.8,0c1.3-0.2,2.3-0.2,2.9-0.1c0.7,0.1,1.2,0.5,1.6,1c0.6,0.7,0.7,1.5,0.6,2.3
	c-0.2,0.8-0.7,1.5-1.5,2.2c-0.5,0.4-1,0.6-1.6,0.7c-0.3,0-0.4,0.1-0.5,0.2s-0.1,0.3,0,0.5V31l-0.3,0.2l-2.4-2.4l0.3-0.2
	c0.7,0.5,1.4,0.8,2.2,0.8c0.8,0.1,1.4-0.1,1.9-0.5s0.7-0.8,0.8-1.2c0.1-0.5-0.1-0.9-0.4-1.4c-0.2-0.3-0.6-0.5-1.1-0.6
	s-1.2,0-2.2,0.1s-1.8,0.1-2.5,0c-0.6-0.1-1.1-0.4-1.5-0.8c-0.5-0.7-0.7-1.4-0.6-2.1c0.1-0.7,0.5-1.4,1.1-1.9c0.5-0.4,1-0.6,1.6-0.7
	c0.2,0,0.3-0.1,0.4-0.3c0.1-0.1,0.1-0.3,0.1-0.4v-0.2l0.3-0.2l2.3,2.4L44.2,21.7z"/>
<path class="st0" d="M73.3,15.2l-1.2-5.9c-0.2-0.8-0.4-1.3-0.6-1.5c-0.2-0.2-0.6-0.3-1.2-0.2l-0.1-0.4l2.1-0.3l2.1-0.3l0.2,0.3
	c-0.6,0.1-0.9,0.3-1,0.6c-0.1,0.2-0.1,0.8,0,1.6l1.2,5.9c0.2,0.8,0.4,1.3,0.6,1.5s0.6,0.3,1.2,0.2l0,0.4l-2.1,0.3l-2.1,0.3l-0.1-0.4
	c0.6-0.1,0.9-0.3,1-0.6C73.5,16.6,73.4,16,73.3,15.2"/>
<path class="st0" d="M136.3,35.6l4.4-4.2c0.6-0.6,1-1,1-1.3c0.1-0.3-0.1-0.6-0.4-1.1l0.3-0.3l1.4,1.5l1.4,1.5l-0.3,0.3
	c-0.4-0.4-0.8-0.6-1-0.5c-0.3,0.1-0.7,0.4-1.3,1l-4.4,4.2c-0.6,0.6-1,1-1,1.3c-0.1,0.3,0.1,0.6,0.4,1.1l-0.3,0.3l-1.4-1.5l-1.4-1.5
	l0.3-0.3c0.4,0.4,0.8,0.6,1,0.5C135.3,36.5,135.7,36.2,136.3,35.6"/>
<path class="st0" d="M64.9,17c0.3,1,0.6,1.6,0.8,1.8c0.2,0.2,0.6,0.3,1,0.2l0.1,0.4l-1.4,0.4l-1.3,0.3L64,19.7
	c0.5-0.2,0.7-0.4,0.8-0.7c0-0.3-0.1-0.9-0.4-1.9l-2.2-6.7c-0.3-0.2-0.5-0.4-0.7-0.4c-0.2-0.1-0.5-0.1-0.8,0l-0.1-0.4l1-0.3l1-0.3
	l7.1,6.2l-1.6-4.9c-0.3-1-0.6-1.6-0.8-1.8c-0.2-0.2-0.6-0.3-1-0.2l-0.1-0.4l1.4-0.4l1.3-0.4L69,7.5c-0.5,0.2-0.7,0.4-0.8,0.7
	c0,0.3,0.1,0.9,0.4,1.9l2.7,8.2h-0.1h-0.1l-8.2-7.1L64.9,17z"/>
<path class="st0" d="M150.2,56.3c-0.9,0.4-1.5,0.6-1.7,0.9c-0.2,0.2-0.2,0.6-0.1,1.1l-0.4,0.1l-0.5-1.4l-0.5-1.4l0.4-0.1
	c0.2,0.5,0.4,0.7,0.7,0.7s0.9-0.1,1.8-0.5l6.4-2.5c0.2-0.3,0.3-0.5,0.4-0.7c0.1-0.2,0.1-0.5,0-0.8l0.4-0.1l0.4,1.1l0.4,1.1l-5.4,7.4
	l4.6-1.8c0.9-0.4,1.5-0.7,1.7-0.9s0.2-0.6,0.1-1.1l0.4-0.1l0.5,1.4l0.5,1.4l-0.4,0.1c-0.2-0.5-0.4-0.7-0.7-0.7s-0.9,0.1-1.8,0.5
	l-7.7,3v-0.1v-0.1l6.2-8.6L150.2,56.3z"/>
<path class="st0" d="M60.2,17.2c0.7,1.3,0.9,2.4,0.7,3.2c-0.2,0.8-0.8,1.4-1.8,1.7c-1,0.4-1.9,0.3-2.7-0.2s-1.5-1.3-2.2-2.7
	l-1.9-3.8c-0.4-0.8-0.7-1.2-0.9-1.4s-0.6-0.2-1.1-0.1l-0.2-0.3l1.7-0.6l1.7-0.6l0.2,0.3c-0.4,0.2-0.7,0.4-0.7,0.6
	c-0.1,0.2,0.1,0.5,0.3,1.1l2.3,4.7c0.5,1.1,1.1,1.8,1.6,2.1c0.5,0.4,1.2,0.4,1.9,0.2c0.7-0.3,1.1-0.7,1.3-1.3
	c0.1-0.6-0.1-1.4-0.6-2.5L58,13.8c-0.4-0.9-0.8-1.4-1-1.6c-0.2-0.2-0.6-0.2-1.1,0l-0.2-0.3l1.4-0.5l1.4-0.5l0.2,0.3
	c-0.5,0.2-0.7,0.4-0.7,0.7s0.2,0.9,0.6,1.7L60.2,17.2z"/>
<path class="st0" d="M91.8,16.7c-1.3-0.1-2.3-0.6-3-1.7c-0.8-1.1-1.1-2.4-1-4.1c0.1-1.6,0.5-3,1.4-4s1.9-1.5,3.2-1.4
	c1.2,0.1,2.2,0.7,3,1.8s1.1,2.4,1,4.1c-0.1,1.6-0.5,3-1.4,4C94.1,16.3,93.1,16.8,91.8,16.7 M91.8,16.1c0.8,0,1.5-0.4,2.1-1.2
	c0.5-0.9,0.8-2,0.9-3.6c0.1-1.5-0.1-2.7-0.6-3.6s-1.1-1.4-1.9-1.4s-1.5,0.4-2.1,1.2c-0.5,0.9-0.8,2-0.9,3.6
	c-0.1,1.5,0.1,2.7,0.6,3.6C90.3,15.6,91,16,91.8,16.1"/>
<path class="st0" d="M150.9,68.3c-0.3-1.2,0-2.3,0.9-3.3s2.1-1.7,3.8-2.1c1.7-0.4,3.1-0.3,4.3,0.2s2,1.4,2.3,2.6
	c0.3,1.2,0,2.3-0.9,3.3s-2.1,1.7-3.8,2.1s-3.1,0.3-4.3-0.2C151.9,70.4,151.2,69.5,150.9,68.3 M151.6,68.1c0.2,0.8,0.8,1.3,1.8,1.6
	c1,0.3,2.3,0.2,3.8-0.1c1.5-0.3,2.7-0.8,3.4-1.5c0.8-0.7,1.1-1.4,0.9-2.2c-0.2-0.8-0.8-1.3-1.8-1.6c-1-0.3-2.3-0.2-3.8,0.1
	c-1.5,0.3-2.7,0.8-3.4,1.5C151.7,66.6,151.4,67.3,151.6,68.1"/>
<path class="st0" d="M40,35.3c-0.9,0.9-2,1.2-3.3,1.1c-1.3-0.2-2.6-0.8-3.8-2c-1.2-1.2-1.9-2.4-2.1-3.7c-0.2-1.3,0.2-2.4,1-3.3
	c0.9-0.9,2-1.2,3.3-1.1c1.3,0.2,2.6,0.8,3.8,2s1.9,2.4,2.1,3.7C41.3,33.3,40.9,34.4,40,35.3 M39.5,34.8c0.6-0.6,0.7-1.4,0.4-2.3
	c-0.3-1-1-2-2.1-3c-1.1-1.1-2.2-1.7-3.1-2c-1-0.3-1.8-0.1-2.4,0.5c-0.6,0.6-0.7,1.4-0.4,2.3c0.3,1,1,2,2.1,3c1.1,1.1,2.2,1.7,3.1,2
	C38.1,35.5,38.9,35.4,39.5,34.8"/>
<path class="st0" d="M78.5,14.4l-0.4-6.1c-0.1-0.8-0.2-1.4-0.3-1.6c-0.2-0.2-0.5-0.3-1-0.3V6l1.8-0.2l1.7-0.1
	C82,5.6,83.4,6,84.4,6.9s1.6,2.3,1.7,4s-0.3,3-1.2,4c-0.9,1-2.2,1.6-4,1.7l-1.5,0.1l-1.9,0.1v-0.4c0.5-0.1,0.8-0.2,1-0.5
	C78.5,15.8,78.5,15.2,78.5,14.4 M79.9,15.1c0,0.4,0.1,0.6,0.2,0.7c0.1,0.1,0.3,0.1,0.6,0.1l0,0c1.2-0.1,2.2-0.6,2.8-1.4
	c0.6-0.9,0.9-2,0.8-3.5S83.8,8.3,83,7.5c-0.7-0.8-1.7-1.2-2.9-1.1h-0.2c-0.3,0-0.5,0.1-0.6,0.2S79.2,7,79.2,7.4L79.9,15.1z"/>
<path class="st0" d="M29.7,43.7l-4.9-3.8c-0.8-0.5-1.2-0.8-1.5-0.8s-0.6,0.1-0.9,0.5l-0.3-0.2l1.2-1.5l1-1.3c1.1-1.3,2.3-2,3.7-2.1
	c1.4-0.1,2.8,0.4,4.2,1.4c1.4,1,2.1,2.2,2.3,3.6c0.2,1.3-0.3,2.7-1.4,4l-0.9,1.2l-1.3,1.4l-0.3-0.2c0.3-0.4,0.4-0.8,0.3-1
	C30.7,44.6,30.3,44.2,29.7,43.7 M31.2,43.1c0.3,0.2,0.6,0.4,0.7,0.4s0.3-0.1,0.5-0.4l0,0c0.8-0.9,1-1.9,0.8-3c-0.2-1-1-2-2.2-2.9
	c-1.2-0.9-2.4-1.4-3.5-1.4s-2,0.4-2.8,1.3v0c-0.2,0.3-0.3,0.4-0.3,0.6c0,0.2,0.2,0.3,0.5,0.6L31.2,43.1z"/>
<path class="st0" d="M25,52.6l-6.9-7l0.1-0.1l0.1-0.1l9.8,1.7c0.5,0,0.9,0,1.1,0s0.4-0.1,0.5-0.3l0,0l0.4,0.2l-1,1.8l-1,1.8
	l-0.4-0.2l0.1-0.1c0.2-0.3,0.2-0.6,0.1-0.8s-0.4-0.3-0.9-0.4l-1.4-0.5L24.3,51l1.1,1c0.3,0.3,0.6,0.4,0.8,0.4c0.2,0,0.5-0.2,0.7-0.5
	l0.1-0.1l0.4,0.2l-0.6,1.1l-0.6,1.1l-0.5-0.1l0,0c0.1-0.2,0.1-0.4,0-0.6C25.5,53.2,25.3,53,25,52.6 M23.7,50.5l1.1-2L21,47.8
	L23.7,50.5z"/>
<path class="st0" d="M144.8,47.4l9.4-2.1l0.1,0.1l0.1,0.1l-6.7,7.3c-0.3,0.4-0.6,0.7-0.7,0.9c-0.1,0.2-0.1,0.4,0,0.6l0,0l-0.4,0.2
	l-0.9-1.7l-0.9-1.7l0.4-0.2l0.1,0.1c0.2,0.3,0.4,0.5,0.6,0.5c0.2,0,0.5-0.2,0.8-0.5l1-1.1l-1.2-2.3l-1.4,0.4
	c-0.4,0.1-0.7,0.2-0.8,0.4s-0.1,0.5,0,0.9l0.1,0.1l-0.4,0.2l-0.6-1.1l-0.6-1.1l0.4-0.2l0,0c0.1,0.2,0.3,0.2,0.5,0.3
	C144,47.5,144.3,47.5,144.8,47.4 M147.2,47.4l1,1.9l2.6-2.8L147.2,47.4z"/>
<path class="st0" d="M69.8,61.2l-1-0.6c-0.8-0.5-2.3,4.7-2.3,5.1s0.1,2.8,1.1,4.3c1,1.6,1.1,3.1,1.2,3.4s-0.5,2.6,1.1,2.4
	c1.5-0.2,1.8-0.4,2.2-0.9c0.3-0.5,0.6-1.5,0.2-1.8c-0.3-0.3-1.3-4.6-1.4-5s-0.3-1.5,0.1-2.8c0.2-1.3,1.3-3.2,1.2-3.2l-0.8-0.4
	c0,0-2.1,2-1.8,5.8c0.3,1.8,1.1,3.3,1.4,5.4c0.1,0.1-0.3,2-0.9,0.3c-0.8-2.5-0.6-2.2-1.1-3.5c-0.5-1.2-1.2-3.2-0.9-4.1
	C68.1,65,68.7,62.3,69.8,61.2"/>
<path class="st0" d="M93.3,58.6c0,0-0.2-1.1,0.2-1.3c0.4-0.1,1.5,2.6,1.5,2.6s0.4,1.4-0.1,3.3c-0.5,1.8-1.6,2.7-2.4,0.3
	s-1-2.8-1.3-3.4c-0.3-0.6,0.5-0.9,0.7-0.4c0.2,0.4,1.1,2.8,1.1,2.9c0,0.2,1,2.1,1.2-1.8C93.9,59.4,93.3,58.6,93.3,58.6"/>
<path class="st0" d="M71.9,78.3c0,0,0.8,0.2,1,1.2s0.1,1.6,0.4,2.1c0.3,0.6,0.6,0.5,0.7,0.2c0.2-0.3,0.2-0.8,1,0.6
	c0.6,1.3-0.7,1.3-0.8,1.3c-0.2,0-1.3-0.4-1.7-1.7c-0.5-1.3-0.3-2.4-0.6-2.8V78.3z"/>
<path class="st0" d="M73.1,75.8c-0.5,0-0.9,0.1-1.2,0.6c-0.4,0.3,5.6,8,7,9s3,2.1,3.8,1.9c0.9-0.3,0.2-1.5,0-1.7
	c-0.1-0.1-1.6-2.3-3-4.1c-1.5-2-2.5-3.7-2.7-3.7l-1.2-0.1c0,0,4.9,6.6,5,6.8c0.1,0.2,0.6,1.2-0.7,0.2C78.4,83.3,73.2,76.1,73.1,75.8
	"/>
<path class="st0" d="M79.4,77.1c-0.3-0.1-0.9,0.3-0.9,0.8c2,2.8,3.8,5.1,6.1,7.8c3.6,4.2,4.8,0.6,4.4-1.2c0-0.1-0.6-1.8-1.8-3.8
	c-1.4-2.1-2.8-4.6-2.9-4.6c-0.5,0-1.4,0-1.4,0c0.1,0.3,4.5,6.2,4.7,7.9c0.2,1.7,0,2.3-1.2,1.5C84.3,83.9,79.7,77.2,79.4,77.1"/>
<path class="st0" d="M86.5,75.1c-0.2-0.2-1.1,0.2-1.2,0.7c1.2,1.9,2,3,2.8,4.4c0.5,0.8,1,1.8,1.9,2.9c3.2,4.5,5.8,1.1,5.3-1.3
	c0-0.2-0.4-1.5-1.5-3.4c-1.2-2.2-2.6-5.6-2.7-5.7c-0.8-0.4-1.3-0.2-1.2,0.4c0.1,0.3,3.6,7.1,3.9,8.8c0.3,1.7-1,2.1-2.3,1
	c-0.8-0.6-1.6-2.2-2.6-3.8C87.7,77,86.7,75.2,86.5,75.1"/>
<path class="st0" d="M92.4,71.3c-0.5-0.1-0.7,0.3-0.8,0.8c1.3,2.2,2.4,5.4,3.8,7.7c2.5,3.8,4.7-0.1,4.2-2.4c0-0.1-0.3-1.8-1.3-3.6
	c-1.3-2.3-4.6-7.7-4.7-7.6c-0.1,0.9-0.2,1.4,0,1.9c0.1,0.2,4.2,5.8,4.6,8.6c0.3,2.4-0.4,2.9-1.6,1.9c-1-1.5-1.2-2-2.1-3.4
	C93.7,73.8,93,71.4,92.4,71.3"/>
<path class="st0" d="M80.4,76.4c0-0.1-0.1-1.4,0.3-1.1c0.5,0.3,4.7,6.9,4.9,7.1c0.2,0.2,0.8,1.6,0,1.1
	C84.8,82.7,80.4,76.5,80.4,76.4"/>
<path class="st0" d="M87.6,74.2c-0.1-0.2,0.1-1.8,0.5-1.5s3.7,6.7,4.1,7.7c0.4,0.9,0.5,2.1-0.6,1.1C90.9,80.4,87.7,74.5,87.6,74.2"
	/>
<path class="st0" d="M93,70.4c0,0,0-1,0.3-1.1s3.2,5.1,3.6,6.2s0.6,2.4-0.4,1.2C95.8,75.7,93.1,70.4,93,70.4"/>
<path class="st0" d="M95.3,64.8c-0.1,0.3-0.4,0.8-0.5,1.1c-0.1,0.2,2.3,3.5,3.6,5.7c1.3,2.2,1.9,3.2,2.2,3.2c0.4,0,0.8-2.1,0.4-3.2
	s-3.2-8-4.6-9.4c-1-0.4-0.6,0.7-0.5,0.9c1.3,2.7,2.2,4.4,3.3,6.5c1.1,2.1,0.7,2.6-0.5,0.8C97.5,67.8,95.4,64.5,95.3,64.8"/>
<path class="st0" d="M90.1,85.2l1.8,0.9c0,0,2.8,4.4,3.1,6c0.3,1.5-0.2,1.4-0.6,0.5C94.1,91.8,90.1,85.2,90.1,85.2"/>
<path class="st0" d="M89.7,87.2l-0.6,1.3c0,0,4.1,6.6,5.9,8.2s2.7,1.8,2.9-0.8c0.2-2.6-2.9-10.4-3.3-10.2l-1.3,0.5
	c0.2,0.2,6.1,12.3,2.1,9.1C93.4,93.7,90.2,87.1,89.7,87.2"/>
<path class="st0" d="M97,82.5h1.3c1.5,2.2,3.4,10.6,1.5,7.1C99.2,87.7,96.9,82.5,97,82.5"/>
<path class="st0" d="M96.2,83.9c0,0-0.6,1-0.6,1.3s2.3,5.2,2.7,5.9c0.4,0.7,2.8,8,4.2,2.1c1.4-5.9-2.4-12.7-2.4-12.7l-0.6,1
	c-0.3,0.5,2.8,5.7,2.1,9.5c-0.7,3.8-1.6,1.2-1.7,0.9C99.4,91.2,96.2,83.9,96.2,83.9"/>
<path class="st0" d="M101,76.9c-0.2,0.3-0.3,2.1-0.3,2c0.1-0.1,2.5,6.4,2.7,9.7c0.2,2.6,1.4,6.1,2.7,1c1.3-5.1,0.3-6.8,0.3-8.7
	c0-1.9-2.1-7.4-2.6-7.4c-0.4-0.1-0.6,0-0.7,0.5s2.4,5.5,2.5,8.7c0.2,3.3,0.3,3.2,0,5s-1,0.9-1.2-0.5C104.3,83.9,101.2,76.6,101,76.9
	"/>
<path class="st0" d="M102,74.1l-0.6,1.3c-0.3,0.6,1.2,1.1,3.5,9.9C105.3,85.4,104.5,77.3,102,74.1"/>
<path class="st0" d="M72.8,147.4c0,0-0.4-0.2-0.1-0.7s1,0.8,1.2,1c0.3,0.3,0.2,0.9-0.2,0.8c-0.4-0.1-1.4,0.3-1.5,0.7
	s-1.4,1.8-2.1,2.7c-0.6,0.8-1,0.8,0-1.2s0.5-1.2,0.5-1.4c0-0.1-2.1-0.5-3.3-0.4c-3.6,3.4-6,5.4-2,0c0-0.6-3.9-0.7-3.3-0.6
	c-0.6,0.3-6.6,4.1-1.9-0.4c0-1.1-6.2-1.2-7.8-0.8c-0.1,0-1.9-0.3,0.9-0.8c2.8-0.5,2.4-0.1,2.6-0.1c0.2,0,0.9,0.2,0.1-0.7
	c-0.7-0.9-1.2-1.9,0.9-0.5c2.1,1.4,4.9,1.7,5.3,1.5c0.4-0.2-0.8-1.5-1-1.7c-0.1-0.2-0.6-1.6,0.8-0.2c1.4,1.3,1.8,2.2,3.2,2.6
	c1.3,0.4,2.5,0.1,2.7,0c0.2-0.1-1-2.1-1.1-2.6c-0.1-0.6,0-1.3,1,0.6c1,1.9,1,2.2,1.9,2.5C70.4,147.7,72.8,147.4,72.8,147.4
	 M82.7,146.8c-0.6,0.6-3.3-0.4-5.1,1.1c-1.6,1.4-3.1,1.7-4.1,2.1c-4.3,4-5.8,5.3-6.6,4.1c3-4.8,0.1-2.8,0.2-3.1c0.1,0-2,2.9-3.6,3
	c-1.4,0.1-3.6-0.6-2.9-1.4c3.5-3.8,2.4-3.3-3.3-0.5c-2-0.5-2.4-1.3-2-1.5c3.7-3.2,1.1-2.5-2.8-1.9c-0.4-0.1-0.8-0.3-1.1-0.3
	c-3.3,0.1-2.4-0.7-2.4-0.9c-0.1-1.3,3.6-2.5,4.7-2.5c0.9,0-1.1-0.7-0.6-1.5c0.1,0,0.9-1.2,2.4-0.6c2.1,0.9,3,1.6,3.6,1.6
	c0.7,0-0.6-1.2-1-2.2c0.2-0.4,1.9-0.9,2.7-0.3c2.4,1.8,5.1,4.8,4.2,2.4c-0.3-0.6-0.7-1.3-0.9-2.1c-0.2-0.8,1.5-1.5,3.4-0.5
	c1.7,3,2.1,3.7,3.1,3.7c0.5,0,0.3-1.5,1.2-1.3c0.9,0.2,2.3,2.2,3.4,2.2c1.2,0,4.5-1.1,4.9-1s2-0.4,2.5,0
	C83.1,145.6,82.9,146,82.7,146.8"/>
<path class="st0" d="M45.9,137.7c0,0,0.2-1,0.6-1.2c0.2-0.1,0.1,0.9,0.5,1.5c0.5,0.7,1.1,1.3,0.8,1.4c-0.1,0.1-0.8,0-0.9,0
	c-0.1,0-0.2-0.4-1.6-0.4c-1.7,0.6-1.3,0.1-0.9-0.5c0.2-0.4-0.5-1.3-1.8-1.2c-2.1,0.2-4.9,0.5-5,0.3c-0.2-0.2,1-0.5,1.2-0.5
	c0.1,0,2.7-0.5,2.8-1.2c-0.5-0.8-0.9-1.6-1.8-2.3c-0.6-0.4-1.5-0.4-2.6-0.6c-0.5-0.1-1.3-0.2-1.7-0.4c-2-0.7-2-0.9,2.6-0.2
	c0.9,0.1,0.9-0.2,0.2-1.4c-0.4-0.6-1.1-2.1-1.7-2.5c-0.1-0.1-3.8-1.3-0.6-0.8c0-3.1,1.1-1.5,1.9,0.4c0.1,0.3,0.8,1.2,1,0.6
	c0.2-0.7,0-3.2,0.8-2.5c-0.2,2.3-0.4,2.2,0,4.3c1.5,2.6-0.1,0,2,3.1c0.6,0.8,0.7,0.4,0.9,0.3c0.1-0.1,0.6-2.5,0.6-3s0.7-1.5,0.7,0.2
	c0,1.6-0.3,4.2,0.2,4.7C44.3,136.7,45.9,138,45.9,137.7 M52.1,142.9c-0.5-0.1-2.3-1.8-3.9-2.3c-1.3-0.4-2.4-0.4-3.2-0.3
	c-0.2,0-2.9,0.8-2.9,0.6c-0.4-1.1,0.8-2-0.8-2c-1.8,0.1-4.6,0.3-4.8,0c-0.3-0.4-2.1-1.4-2.5-2.3c-0.4-1,3.1-0.8,3.9-0.9
	c1.6-0.1,1.1-1-0.5-1.4c-1.3-0.4-2.8-0.5-3.9-0.9c-1-0.4-1.9-1.8-2.1-2.6s2.6-0.1,2.9,0c2.5,0,2.1-0.1-0.5-1.6
	c-0.2-0.3-0.5-0.3-0.7-0.4c-3.8-1.9,0.3-2,1.4-2.2c0.5,0-0.2-3.4,0.2-3.6c0.1-0.1,0.5-1.2,1.2,1.1c1,0.5,0.3-0.8,1.6,1.7
	c0.9,0.7,0.6-2,0.8-2.3c0.4-0.8,2,0.2,2,1.3c0.1,2.3,0.5,7.9,1.3,5.6c0.1-0.5,0.2-1.5,0.8-2.9s2,0.6,2.6,2.1
	c0.1,1.6,0.3,3.7,0.4,4.8c0,0.5,0.5,0.4,0.6,0.6c0.3,0,0.6-0.1,0.8-1c0.1-0.4,0.5-0.4,0.8-0.3c0.4,0.2,0.9,3.9,1.5,4.7
	c0.5,0.8,1.9,1.9,2.1,2.1c0.2,0.3,2.2,1.6,1.9,1.8C52.9,142.4,52.7,142.6,52.1,142.9"/>
<path class="st0" d="M27.9,119.5c-0.3,0.1-0.6-0.6-1.1-0.7c-0.4-0.1-2.9-0.5-2.5-0.7s0.3,0.1,1.6-0.1c0.9-0.1-0.7-1.8-0.8-2.2
	c-0.1-0.4-1.3-0.8-3.9-1.4c-2.6-0.5-2.7-0.8-0.2-0.5c2.5,0.2,2.6,0.3,2.8,0.2c0.2-0.1-1-2-1.3-2.4c-0.2-0.3-2.9-1.4-4.1-1.7
	c-1.2-0.4-1.6-0.8-0.1-0.6c1.5,0.2,2.3,0.8,2.6,0.7c0.3,0-0.6-0.8-0.8-1.2c-0.2-0.3-2.1-1.8-1.7-1.8s1.1,0.6,1.2,0.4
	c0.1-0.2-0.1-0.7,0.1-0.9c0.2-0.2,1.2,1.5,1.3,1.6s0.5,0.4,0.9-0.2s0.5-1.2,0.9-1.5c0.2,0.2-0.3,1.6-0.3,1.8c0,0.2-0.3,1.5,0,1.8
	c0.3,0.4,1.7,2.5,2.2,2.8s1.8-4.2,1.8-4.4c0-0.2,0.4-0.7,0.5,0s-1.3,4.5-1.3,4.7c-0.1,0.2-0.1,1.9,1.2,3.1c0.5-0.3,0.8-0.4,1-0.6
	c0.3-0.2,1.2-0.9,0.7,0c-0.4,0.9-1,0.8-1,1.9C27.6,118.8,28,118.5,27.9,119.5 M33.7,125.8c-0.5,0.4-2.8-1.2-4.4-3.1
	c-0.4-0.5-1.1-0.9-1.6-1.5c-0.2,0-0.9-0.6-1.8-0.9c-1-0.3-2-0.6-3-1c-0.6-0.2-2.3-1.2-2.3-1.5c0-0.8,1.4-0.7,1.9-0.6
	c0.2,0,0.9,0.1,1-0.2c0.1-0.3-1.6-0.8-1.8-0.8c-1-0.2-2-0.5-2.9-0.7c-0.6-0.2-1-0.5-1.3-0.8c-0.2-0.3-0.4-0.6-0.6-0.9
	c-0.3-0.4-0.3-0.7-0.4-1c-0.1-0.2,0.2-0.5,0.9-0.6c0.6-0.1,1.3,0,1.9,0.2c0.4,0.1,1.4,0.3,1.3,0.1c-0.1-0.2,0-0.3-0.4-0.4
	s-1.4-0.5-1.9-0.7s-1-0.3-1.6-0.5s-1.6-0.7-1.6-1.5c-0.6-0.8-0.2-1.2,0.2-1.4c0.4-0.2,1.3,0.1,1.5,0.1c0.2,0,1.6,0.4,0.9-0.4
	c-0.7-0.8-1-1.1-0.9-1.6s0.7-0.9,1.3-0.7c0.6,0.2,0.9,0.1,1-0.1s0.4-0.8,1-0.3s0.7,0.9,1,1.2c0.4,0.3,0.6,0.9,0.9,0s0.5-1.7,0.9-1.8
	c0.4-0.1,0.6-0.3,1.2,0.6c0.4,0.6-0.1,2.2-0.2,2.9c-0.1,0.7,0.1,1,0.1,1.3c0.1,0.3,0.4,0.8,0.8,0s0.3-1.1,0.6-1.8
	c0.3-0.7,0.3-1.8,1.2-1.7c0.9,0,2.2,1,2.2,1.9c-0.1,0.9-0.2,1.7-0.7,3.7c-0.5,2.1-0.3,0.9-0.3,1.5s0.4,1.1,1.1,0.4s0.9-1.1,1.4-0.9
	c0.6,0.1,0.4,1,0.4,1.2c-0.1,0.2-0.8,3.3-1.1,4.1c-0.3,0.8,0,2.8,0.4,3.6c0.4,0.8,1.9,2.8,3.9,3.3L33.7,125.8z"/>
<path class="st0" d="M16.1,85.1c0-0.4,0-2.3,0.7-0.3c0.2,0.2,0.2,0.3,0.7,0s2.5-2.4,1-0.1c-0.6,0.9-1.2,1.5-1.5,2.1
	c-0.5,1-0.6,1.8-0.4,2c0.3,0.2,1.8-0.5,2.3-0.7s2.7-0.9-0.9,1.1c-2.2,1.3-1.8,0.8-1.9,2.3c0.1,1.3,0.2,1.5,0.2,1.6
	c0.1,0.1,1.4-0.2,1.5-0.3c0.2-0.1,1.3-0.3,0.2,0.6s-1.1,1-1.2,1.5c0,0.5,0.1,1,0.4,1.4c0.2,0.1,0.7,0,0.7,0.3c-0.1,0.3,0,0.9-0.4,1
	c-0.1,0-0.3,0-0.5-0.1c-0.6-0.4-1.7-1-1.8-1.1c-0.2-0.2,0.5-0.1,0.5-0.3c0.1-0.3,0-1-0.3-1.1c-0.2-0.1-1.5-1.1-2.4-1.4
	s-0.9-0.7,0.2-0.4c1.1,0.3,1.7,0.6,1.7,0.4c0.1-0.2,0.1-1.5-0.3-2.3c-0.4-0.8-1.7-2.8-1.8-3c0.1-0.2-0.4-1.7,0.8-0.2
	s1.4,1.6,1.7,1.4c0.3-0.3,0.4-2.4,0.6-2.7C15.9,86.5,16.1,85.1,16.1,85.1 M19.9,103.9c-0.3-0.1-1.3-0.2-1.5-0.9
	c-0.2-0.7-0.1-2.3-1-3.6c-0.9-1.3-2.2-1.8-2.5-2.1c-0.3-0.3-1.1-0.5-0.7-1.3c0.3-0.7,0.3-0.8-0.2-0.9c-0.5-0.2-2.2-0.9-2.5-1.1
	s-1.2-1.2-1.1-2.7c0.2-1.4,2.1,0.4,2.6,0.4s0.5-0.3,0.3-0.8s-1.9-2.8-1.6-3.6c0.2-0.8,0.9-2,1.2-2.1c0.1-0.1,0.5,0.2,0.7,0.6
	c0.2,0.4,0.9,1.5,1.4,0.4c0.4-1.1-0.1-2.3,0.4-3.2c0.5-0.9,1.2-1.6,1.9-0.8c0.7,0.7,1,0.1,1.4-0.2c0.2-0.2,0.6-0.2,0.9-0.3
	c0.2-0.1,0.3-0.3,0.4-0.4c0.2-0.2,0.7-0.4,0.7,0.4c0,0.3-0.2,0.4-0.1,0.7c0.1,0.4,0.4,1,0.3,1.3c-0.2,0.5-0.7,1.2-1.3,2
	c-0.6,0.9-0.8,1.2,0.4,0.8c1.2-0.4,2.2-1.8,2.3-0.4c0.2,1.4-0.9,2.6-1.1,2.8c-0.2,0.2-1.1,0.7-2,1.1c-0.8,0.5-1.6,1.6-0.3,1.3
	c1.2-0.4,2.1-1.1,2.5-0.6s-0.1,1.4-0.4,1.9s-1,1.3-1.8,1.7c-0.8,0.4-1.4,0.9-0.3,1.2c1.1,0.3-0.4,1.5-0.4,2s0,0.9,0.1,1.8
	C18.9,100.3,20.2,104.1,19.9,103.9"/>
<path class="st0" d="M91.7,145.6v1.3c0,0,4,0.8,5.4,1.5c1.5,0.7,6.6,3.4,7.8,3.4c1.2-0.1,3.4-0.7,5.9-1.7c2.6-1,5.7-2.1,6.6-2.6
	s5.4-3.9,4.5-3.8c-0.9,0.1-2.1,0.4-3.3,0.8c-1.3,0.4-5,2.3-5.3,2.5s-2,1.2-3.6,1.7c-1.6,0.6-4.3,1.3-5.5,0.9c-2-0.7,0.4-1.4,0.9-1.4
	s2.7-0.6,3.7-0.6c1-0.1,6-3.6,11-4.4c2.9-0.5-1.3-0.8-3.1-0.5c-1.6,0.3-5.8,1.6-6.3,1.9c-0.5,0.3-6.4,2.5-7.6,3s-1.6,0.3-2.3,0.2
	C100.1,148,92.9,144.9,91.7,145.6"/>
<path class="st0" d="M121.9,142.2l1,0.7c0,0,1.2-1.9,4.1-2.9c2.8-1.1,2.8-0.7,4.1-1.4c1.3-0.8,4-2.6,5.4-4c1.3-1.5,3.9-3.3,4.5-4.4
	c0.6-1.1,1.4-4.2,0.8-3.8c-0.5,0.4-0.5,1.1-1.1,2.3c-0.7,1.2-4.6,3.5-4.7,3.6c-0.1,0.1-2.4,2.3-3.2,3s-2.2,2.4-3.1,2.8
	c-1.5,0.5-0.8-0.7-0.5-1s3.2-3.7,5.1-5s7.4-4.8,6.7-6.8c0,0-2.7,1.9-2.9,2c-0.2,0.2-2.9,2.2-3.2,2.4c-0.3,0.3-4.9,4.1-5.7,5.5
	c-0.8,1.3-1.6,1.8-2.9,3C126.3,138.3,121.1,141.6,121.9,142.2"/>
<path class="st0" d="M143,124.5l0.1,1.2c0.5,0,3.2-3.2,4-4.7s3-2.5,3.8-3.8s1-2,1.7-3.2s2.3-6.6,2.5-8.4s0-3.2-1.1-1.2
	s-0.8,2.6-1.2,3.5c-0.3,0.9-1.5,4.2-1.5,4.2c-0.1,0.1-1.2,3-1.6,3.8c-0.4,0.8-1.1,2-1.6,2.6c-1.7,1.2-1-0.3-0.8-1.1
	c0.3-0.8,1.7-3.1,2.1-4.5c0.4-1.3,2.6-6.6,3.3-8c0.3-0.9-1.7,1.4-2.5,2.7c-0.5,0.9-1.4,2.8-1.5,3.1c-0.1,0.3-2.1,4.7-2.1,4.8
	c0,0.1-1.3,2.4-1.4,4.5C145.3,122.1,143.4,124.2,143,124.5"/>
<path class="st0" d="M153.8,102.9l1.2-0.9c0.1-1,0.5-3.8,1.1-4.4c0.7-1.1,2.3-3.3,2.6-4.3s0.3-0.9,0.7-2c0.3-1.1,0.6-6.4,0.5-6.8
	s-1.5-2.4-1.5-1.9s0.3,0.2,0.2,1.8c0,1.6-0.7,3-1.1,4.1c-0.4,1.1-0.3,2.4-0.3,3.2c0,0.8,0.2,1.7-0.2,2.4c-0.4,0.6-0.7,0.9-1.1-0.5
	c-0.4-1.4,0.5-6.5,1.7-8.3c0.4-2.4-0.3-2.6-0.5-2.6c-0.1-0.4-1.3,1.5-1.6,2.6c-0.2,0.9-0.6,3.9-0.7,4.2c-0.1,0.2-0.3,6.8-0.1,7.2
	c-0.3,0.3-1.2,3.2-1.1,4.1C153.7,101.7,153.6,103.1,153.8,102.9"/>
<path class="st0" d="M103.2,152.2c0.1,0.1,1.9,2.5,5.3,2.5c1.4,0,4.2-0.7,5.5-1.2c1.2-0.5,3.4-1.4,4-1.6c0.6-0.2,4.5-2.3,4.7-2.3
	s0.2-0.5-1.5-0.2c-1.6,0.3-5.5,2-6.5,2.5s-3.2,1.1-3.6,1.2c-0.4,0.1-1.7,0.6-2.7,0.4c-0.7,0-1.4-0.4-0.1-0.5s3.1-0.5,4-0.9
	c1.3-0.5,2.6-1,3.2-1.4c0.7-0.4,3.3-1.3,4-1.4c0.7-0.1,2-0.1,0.9-0.6s-3.6,0.1-3.9,0.3s-3.4,1.4-4,1.6c-0.6,0.2-2.4,1-3.6,1.3
	c-1.2,0.2-2.5,1-3.7,0.8C104.5,152.6,103.1,152.1,103.2,152.2"/>
<path class="st0" d="M128.2,141c0.2,0.1,1,0.2,3.8,0.2c1.4-0.4,3.7,0,4.8-0.8c1.1-0.8,4.5-4,5.1-4.4c0.5-0.5,1.7-1.7,2.2-2.3
	s1.2-3.4,0.4-2.8c-0.4,1.2-3.3,4.6-4.7,5.6s-2.4,2.1-2.7,2.2c-0.3,0.2-1,0.9-2,1.1c-0.6,0.3-1-0.4-0.1-1.1c0.9-0.7,1.2-0.8,2-1.4
	c1.1-0.8,1.6-1.3,2.6-2.1c1.1-0.8,3.2-3.5,3.4-4.2l-1.2,0.1c-0.5,0.8-1.4,1.7-2.5,2.8c-0.3,0.3-2.2,2.2-2.7,2.5s-2,1.5-3.1,2
	c-1.1,0.5-2,1.2-3.2,1.3C129.5,140,128.1,141,128.2,141"/>
<path class="st0" d="M148.5,121.9c0,0,1-0.1,3.2-1.1c1-0.2,2.3-0.6,2.9-1.9c0.7-1.2,2.5-4.7,2.7-5.4c0.2-0.7-0.2,0.6,1.1-2.7
	c1.3-3.3,0.6-2.4-0.1-1.9c-0.8,1-2.2,4.3-2.6,5.4c-0.5,1.4-1.2,3.2-2.2,4.2c-0.7,0.8-1.9,0.8-0.8-0.7c1-1.4,1-1.1,1.4-1.9
	c0.5-1,0.8-1.6,1.1-2.7c0.3-1.2,2.6-4.7,2.8-5.1c-1.2,0.6-2.8,1.7-2.9,2.3c-0.5,2.1-2.3,5.3-3,7.2
	C151.6,118.3,147.6,121.7,148.5,121.9"/>
<path class="st0" d="M156.9,99.7c0,0,1.3-1.4,2.8-2.5c0.8-0.7,1.1-0.9,2.1-1.9s1.6-2.9,1.5-3.5s0.5-1.2,0.4-4.1
	c-0.1-2.5-1.6-3-1.5-2.9c0.1,0.2,0.8,2.1,0.3,4.2c-0.5,1.3-1,4.1-1.1,5c-0.1,1.1-1.1,1.8-0.9,0.1c0.2-1.7,0.4-1.7,0.5-2.4
	c0.2-0.9,0.7-2.6,0.8-3.6c0.2-1,0-2.5-0.1-2.9c-0.1-0.5-1.1-0.1-1,0.8c0.3,2.2-0.5,7.2-1.7,9.1c-0.2,0.3-1.1,1.3-1.8,2.5
	C156.9,98.6,156.6,99.6,156.9,99.7"/>
<path class="st0" d="M100.5,146.2c-1,0.3-1.4,0.5-0.5,0.8s1.7,0.4,3.3-0.2c1.6-0.6,1.4-0.6,3-1.3c1.5-0.7,1.8-0.9,2.8-1.2
	s2.5-1,3.5-1.3s1.8-0.4,2.8-0.6c1-0.2,1.4-0.3,1.4-0.3s0.2-0.8,0.1-1.1c-0.8-0.1-3.2,0-4.8,1.1c-1.6,1-4.1,1.5-4.5,1.6
	s-2.4,1.1-2.7,0.9c-0.3-0.1,1.4-1.5,2.7-1.9c1.3-0.3,2.7-0.7,3.6-1.1c0.8-0.5,2.5-1.5,4.5-1.5c1.9,0,0.4-0.5,0.2-0.5
	c-1.1-0.2-2.9-0.4-5.3,0.9c-2,0.6-3.2,0.8-4.4,1.7c-1.2,0.9-2.5,2.1-3.2,2.7C102.3,145.2,102,145.7,100.5,146.2"/>
<path class="st0" d="M125.7,136.4c-0.2,0.8-0.6,1.2,0.1,1.1c0.7-0.1,1.6-1,2.4-2.1c1.5-2,2.5-3.5,4.2-4.9c0.6-0.5,1.7-1.3,2-1.9
	c0.1-0.2,0.3-1.5,0.3-1.9c-0.4,0.4-2.5,2.2-3.6,3.1c-1,0.9-1.8,2-1.9,2.2c-0.2,0.2-1.6,2.6-2,2.6s0.8-2.4,1.4-3.2
	c0.5-0.9,3.1-2.9,3.3-3.2c0.3-0.4,1.7-1,2.9-3.1c1.3-2.9-0.3-1.6-1-0.3c-0.5,0.9-3.3,3.2-4.6,4.2c-1.1,1.2-2,1.9-2.5,3
	C125.9,133.6,126.1,134.9,125.7,136.4"/>
<path class="st0" d="M143.8,118.8c0.1,0.7,0.4,1.3,0.7,0.9s0.3-1.8,0.6-2.9c0.6-2,1.4-3.6,2.2-5.2c0.3-0.6,2.2-4.6,2.6-5
	c0.4-0.4-0.1-1.6-0.5-1.7c-0.4,0.2-2.3,4.2-2.4,5.3c-0.2,1.2-1.4,3.4-1.5,3.6s-0.8,1.5-1.1,1.7s-0.8,0.2-0.6-0.6
	c0.2-0.8,2.1-4,2.1-4.5c0.1-0.4,0.6-2.4,1.4-3.8c1.8-2.8-0.4-1.1-1.1,0c-0.4,0.5-1.8,3.4-2.5,5.3c-0.6,1.2-0.8,2.1-0.8,3.2
	C142.7,116.6,143.5,117.5,143.8,118.8"/>
<path class="st0" d="M152.8,95.6c0.7,0.9,1,1.1,1.1,0.4c0.1-0.8,0-2.2-0.1-3.1c-0.3-1.7-0.3-1.9-0.1-3.3c0.2-1.8,0.1-1.8,0-2.1
	c0-0.3-0.7-1.7-0.8-1.7c-0.2,0.2-0.1,1.3-0.2,2.5c-0.2,0.5-0.2,1-0.2,1.5s0.3,1.6,0.6,2.6c0.2,1,0,1.8-0.7,0.8
	c-0.3-0.5-0.8-3.1-0.8-3.8c0-0.7,0.1-2,0.4-3c0.4-2.1-1-3.4-1.1-2.9c-0.1,0.4-0.3,4.2-0.3,5.9c-0.1,1.1,0.2,3.1,0.7,3.8
	C151.7,94.1,152,94.7,152.8,95.6"/>
<path class="st1" d="M189.2,55.8c1.5-0.2,3.5-0.5,6.5-0.5c2.9,0,5.1,0.6,6.4,1.7c1.3,1.1,2.3,2.8,2.3,4.8s-0.6,3.9-1.9,5
	c-1.7,1.5-4.1,2.2-6.9,2.2c-0.6,0-1.2,0-1.7-0.1v7.6h-4.7V55.8z M193.9,65.4c0.4,0.1,0.8,0.1,1.6,0.1c2.5,0,4.1-1.3,4.1-3.4
	c0-1.9-1.3-3.2-3.8-3.2c-1,0-1.6,0.1-1.9,0.1L193.9,65.4L193.9,65.4z"/>
<path class="st1" d="M222.5,68.9c0,5.6-4,8.2-8.1,8.2c-4.5,0-8-2.9-8-7.9c0-5,3.3-8.1,8.2-8.1C219.4,61.1,222.5,64.2,222.5,68.9
	 M211.4,69.1c0,2.7,1.1,4.6,3.2,4.6c1.9,0,3-1.8,3-4.6c0-2.3-0.8-4.6-3-4.6C212.2,64.4,211.4,66.8,211.4,69.1"/>
<path class="st1" d="M240.5,54.5v17.7c0,1.7,0.1,3.5,0.1,4.6h-4.2l-0.2-2.2H236c-1,1.7-2.8,2.5-4.8,2.5c-3.6,0-6.5-3.2-6.5-7.9
	c0-5.2,3.2-8.2,6.9-8.2c1.9,0,3.4,0.7,4.1,1.7h0.1v-8.2C235.7,54.5,240.5,54.5,240.5,54.5z M235.6,67.8c0-0.2,0-0.6-0.1-0.8
	c-0.2-1.2-1.3-2.3-2.8-2.3c-2.2,0-3.3,1.9-3.3,4.4c0,2.5,1.3,4.2,3.3,4.2c1.3,0,2.5-1,2.8-2.3c0.1-0.4,0.1-0.7,0.1-1.1V67.8z"/>
<path class="st1" d="M248,70.6c0.1,1.9,2.1,2.9,4.4,2.9c1.7,0,2.9-0.2,4.2-0.6l0.6,3.3c-1.6,0.6-3.5,1-5.6,1c-5.2,0-8.2-3-8.2-7.8
	c0-3.9,2.4-8.2,7.8-8.2c5,0,6.9,3.9,6.9,7.6c0,0.8-0.1,1.6-0.1,1.9H248V70.6z M253.6,67.4c0-1.2-0.5-3.2-2.7-3.2
	c-2.1,0-2.8,1.8-2.9,3.2H253.6z"/>
<path class="st1" d="M260.8,66.5c0-2.3,0-3.8-0.1-5.1h4.1l0.2,2.8h0.1c0.8-2.3,2.7-3.2,4.1-3.2c0.5,0,0.6,0,1,0.1v4.5
	c-0.4,0-0.7-0.1-1.3-0.1c-1.8,0-2.9,1-3.3,2.4c-0.1,0.4-0.1,0.7-0.1,1.1v7.8h-4.8V66.5H260.8z"/>
<path class="st1" d="M283.5,55.6h4.8v13.3c0,6.1-2.9,8.1-7.5,8.1c-1.1,0-2.5-0.2-3.5-0.5l0.5-3.9c0.6,0.2,1.5,0.4,2.4,0.4
	c2.1,0,3.3-1,3.3-4.1V55.6z"/>
<path class="st1" d="M306.7,71.8c0,2.1,0.1,3.6,0.1,5h-4.1l-0.2-2.2l0,0c-0.6,1-2.1,2.5-4.8,2.5c-3.2,0-5.5-1.9-5.5-6.7v-9h4.8v8.2
	c0,2.2,0.7,3.5,2.4,3.5c1.3,0,2.1-0.8,2.4-1.7c0.1-0.2,0.2-0.6,0.2-1.1v-9.1h4.7v10.4H306.7z"/>
<path class="st1" d="M325.4,54.5v17.7c0,1.7,0,3.5,0.1,4.6h-4.2l-0.2-2.2H321c-1,1.7-2.8,2.5-4.8,2.5c-3.6,0-6.5-3.2-6.5-7.9
	c0-5.2,3.2-8.2,6.9-8.2c1.9,0,3.4,0.7,4.1,1.7h0.1v-8.2C320.7,54.5,325.4,54.5,325.4,54.5z M320.7,67.8c0-0.2,0-0.6-0.1-0.8
	c-0.2-1.2-1.3-2.3-2.8-2.3c-2.2,0-3.3,1.9-3.3,4.4c0,2.5,1.3,4.2,3.3,4.2c1.3,0,2.5-1,2.8-2.3c0-0.4,0.1-0.7,0.1-1.1V67.8z"/>
<path class="st1" d="M334.3,57.2c0,1.3-1,2.4-2.5,2.4c-1.5,0-2.5-1.1-2.5-2.4s1-2.4,2.5-2.4S334.3,55.7,334.3,57.2 M329.3,61.4h4.8
	v15.4h-4.8V61.4z"/>
<path class="st1" d="M349.6,76.3c-0.8,0.4-2.4,0.7-4.2,0.7c-5,0-8.1-3-8.1-7.9c0-4.5,3-8.1,8.8-8.1c1.2,0,2.7,0.2,3.6,0.6l-0.7,3.5
	c-0.6-0.2-1.5-0.5-2.7-0.5c-2.5,0-4.1,1.8-4.1,4.2c0,2.8,1.9,4.4,4.2,4.4c1.1,0,2.1-0.2,2.8-0.5L349.6,76.3z"/>
<path class="st1" d="M357.1,57.2c0,1.3-1,2.4-2.5,2.4c-1.6,0-2.5-1.1-2.5-2.4s1-2.4,2.5-2.4C356.1,54.7,357.1,55.7,357.1,57.2
	 M352.1,61.4h4.7v15.4h-4.7V61.4z"/>
<path class="st1" d="M373.6,73.1c0,1.5,0.1,2.9,0.2,3.8h-4.4l-0.2-1.6h-0.1c-1,1.2-2.5,1.8-4.4,1.8c-3.2,0-5-2.3-5-4.7
	c0-4,3.6-5.8,9.1-5.8v-0.2c0-0.8-0.5-2.1-2.8-2.1c-1.6,0-3.3,0.5-4.2,1.2l-0.8-3c1.1-0.6,3.2-1.3,5.9-1.3c5.1,0,6.8,3,6.8,6.7v5.3
	H373.6z M369,69.5c-2.5,0-4.5,0.6-4.5,2.4c0,1.2,0.8,1.8,1.9,1.8c1.2,0,2.2-0.7,2.5-1.8c0.1-0.2,0.1-0.5,0.1-0.8v-1.6H369z"/>
<rect x="377.4" y="54.5" class="st1" width="4.8" height="22.3"/>
<path class="st1" d="M204.2,86.2v17.7c0,1.7,0,3.5,0.1,4.6h-4.2l-0.2-2.3l0,0c-1,1.7-2.8,2.5-4.8,2.5c-3.6,0-6.5-3.2-6.5-7.9
	c0-5.2,3.2-8.2,6.9-8.2c1.9,0,3.4,0.7,4.1,1.7l0,0v-8.2h4.7V86.2z M199.5,99.5c0-0.2,0-0.6,0-0.8c-0.2-1.2-1.3-2.3-2.8-2.3
	c-2.2,0-3.3,1.9-3.3,4.4c0,2.5,1.3,4.2,3.3,4.2c1.3,0,2.5-1,2.8-2.3c0-0.4,0.1-0.7,0.1-1.1v-2.1H199.5z"/>
<path class="st1" d="M211.7,102.3c0.1,1.9,2.1,2.9,4.4,2.9c1.6,0,2.9-0.2,4.2-0.6l0.6,3.3c-1.6,0.6-3.5,1-5.6,1
	c-5.2,0-8.2-3-8.2-7.8c0-3.9,2.4-8.2,7.8-8.2c5,0,6.9,3.9,6.9,7.6c0,0.8-0.1,1.6-0.1,1.9h-9.9V102.3z M217.4,99
	c0-1.2-0.5-3.2-2.7-3.2c-2.1,0-2.8,1.8-2.9,3.2H217.4z"/>
<rect x="231" y="86.2" class="st1" width="4.8" height="22.3"/>
<path class="st1" d="M252.6,104.7c0,1.5,0,2.9,0.2,3.8h-4.4l-0.2-1.6h-0.1c-1,1.2-2.5,1.8-4.4,1.8c-3.2,0-5-2.3-5-4.7
	c0-4,3.6-5.8,9.1-5.8v-0.2c0-0.8-0.5-2.1-2.8-2.1c-1.6,0-3.3,0.5-4.2,1.2l-1-3c1.1-0.6,3.2-1.3,5.9-1.3c5.1,0,6.8,3,6.8,6.7V104.7z
	 M247.9,101.2c-2.5,0-4.5,0.6-4.5,2.4c0,1.2,0.8,1.8,1.9,1.8c1.2,0,2.2-0.7,2.5-1.8c0.1-0.2,0.1-0.5,0.1-0.8v-1.6H247.9z"/>
<polygon class="st1" points="262.9,87.3 275.9,87.3 275.9,91.2 267.7,91.2 267.7,96 275.4,96 275.4,99.9 267.7,99.9 267.7,108.4 
	262.9,108.4 "/>
<path class="st1" d="M283,102.3c0.1,1.9,2.1,2.9,4.4,2.9c1.7,0,3-0.2,4.2-0.6l0.6,3.3c-1.6,0.6-3.5,1-5.6,1c-5.2,0-8.2-3-8.2-7.8
	c0-3.9,2.4-8.2,7.8-8.2c5,0,6.9,3.9,6.9,7.6c0,0.8-0.1,1.6-0.1,1.9H283V102.3z M288.7,99c0-1.2-0.5-3.2-2.7-3.2
	c-2.1,0-2.8,1.8-2.9,3.2H288.7z"/>
<path class="st1" d="M310.9,86.2v17.7c0,1.7,0.1,3.5,0.1,4.6h-4.2l-0.2-2.3l0,0c-1,1.7-2.8,2.5-4.8,2.5c-3.6,0-6.5-3.2-6.5-7.9
	c0-5.2,3.3-8.2,6.9-8.2c1.9,0,3.4,0.7,4.1,1.7l0,0v-8.2h4.7V86.2z M306.2,99.5c0-0.2,0-0.6,0-0.8c-0.2-1.2-1.3-2.3-2.8-2.3
	c-2.2,0-3.3,1.9-3.3,4.4c0,2.5,1.3,4.2,3.3,4.2c1.3,0,2.5-1,2.8-2.3c0.1-0.4,0.1-0.7,0.1-1.1v-2.1H306.2z"/>
<path class="st1" d="M318.4,102.3c0.1,1.9,2.1,2.9,4.4,2.9c1.7,0,2.9-0.2,4.2-0.6l0.6,3.3c-1.6,0.6-3.5,1-5.6,1
	c-5.2,0-8.2-3-8.2-7.8c0-3.9,2.4-8.2,7.8-8.2c5,0,6.9,3.9,6.9,7.6c0,0.8-0.1,1.6-0.1,1.9h-9.9V102.3z M324.1,99
	c0-1.2-0.5-3.2-2.7-3.2c-2.1,0-2.8,1.8-2.9,3.2H324.1z"/>
<path class="st1" d="M331.4,98.2c0-2.3,0-3.8-0.1-5.1h4.1l0.2,2.8h0.1c0.7-2.3,2.7-3.2,4.1-3.2c0.5,0,0.6,0,1,0.1v4.5
	c-0.4,0-0.7-0.1-1.3-0.1c-1.8,0-2.9,1-3.3,2.4c0,0.4-0.1,0.7-0.1,1.1v7.8h-4.8V98.2H331.4z"/>
<path class="st1" d="M356.2,104.7c0,1.5,0.1,2.9,0.2,3.8h-4.4l-0.2-1.6h-0.1c-1,1.2-2.5,1.8-4.4,1.8c-3.2,0-5-2.3-5-4.7
	c0-4,3.6-5.8,9.1-5.8v-0.2c0-0.8-0.5-2.1-2.8-2.1c-1.6,0-3.3,0.5-4.2,1.2l-0.8-3c1.1-0.6,3.2-1.3,5.9-1.3c5.1,0,6.8,3,6.8,6.7v5.3
	H356.2z M351.5,101.2c-2.5,0-4.5,0.6-4.5,2.4c0,1.2,0.8,1.8,1.9,1.8c1.2,0,2.2-0.7,2.5-1.8c0.1-0.2,0.1-0.5,0.1-0.8v-1.6H351.5z"/>
<path class="st1" d="M371.5,108c-0.8,0.4-2.4,0.7-4.2,0.7c-5,0-8.1-3-8.1-7.9c0-4.5,3-8.1,8.8-8.1c1.2,0,2.7,0.2,3.6,0.6l-0.7,3.5
	c-0.6-0.2-1.5-0.5-2.7-0.5c-2.5,0-4.1,1.8-4.1,4.2c0,2.8,1.9,4.4,4.2,4.4c1.1,0,2.1-0.2,2.8-0.5L371.5,108z"/>
<path class="st1" d="M379.1,88.9c0,1.3-1,2.4-2.5,2.4c-1.5,0-2.5-1.1-2.5-2.4s1-2.4,2.5-2.4C378.2,86.4,379.1,87.4,379.1,88.9
	 M374.2,93.1h4.8v15.4h-4.8V93.1z"/>
<path class="st1" d="M398.1,100.6c0,5.6-4,8.2-8.1,8.2c-4.5,0-8-2.9-8-7.9s3.3-8.1,8.2-8.1C394.9,92.7,398.1,95.9,398.1,100.6
	 M386.9,100.7c0,2.7,1.1,4.6,3.2,4.6c1.9,0,3-1.8,3-4.6c0-2.3-0.8-4.6-3-4.6C387.8,96.1,386.9,98.4,386.9,100.7 M395,86.4l-3.9,4.7
	h-3.3l2.7-4.7H395z"/>
<path class="st1" d="M401,97.9c0-1.9-0.1-3.5-0.1-4.8h4.1l0.2,2.2h0.1c0.6-1,2.2-2.4,4.7-2.4c3.2,0,5.6,2.1,5.6,6.7v9.1h-4.7v-8.5
	c0-1.9-0.7-3.3-2.4-3.3c-1.3,0-2.1,1-2.4,1.8c-0.1,0.4-0.1,0.7-0.1,1.2v8.8h-4.7V97.9H401z"/>
</svg>
